%TF.GenerationSoftware,KiCad,Pcbnew,6.0.0~20210702.eff75b6+dfsg1-1*%
%TF.CreationDate,2021-07-19T10:32:11+02:00*%
%TF.ProjectId,plate,706c6174-652e-46b6-9963-61645f706362,rev?*%
%TF.SameCoordinates,Original*%
%TF.FileFunction,Legend,Top*%
%TF.FilePolarity,Positive*%
%FSLAX46Y46*%
G04 Gerber Fmt 4.6, Leading zero omitted, Abs format (unit mm)*
G04 Created by KiCad (PCBNEW 6.0.0~20210702.eff75b6+dfsg1-1) date 2021-07-19 10:32:11*
%MOMM*%
%LPD*%
G01*
G04 APERTURE LIST*
%ADD10C,0.120000*%
G04 APERTURE END LIST*
D10*
%TO.C,REF\u002A\u002A*%
X100812500Y-85783750D02*
X98352500Y-85783750D01*
X98352500Y-85783750D02*
X98352500Y-87253750D01*
X98352500Y-87253750D02*
X100812500Y-87253750D01*
X138912500Y-85783750D02*
X136452500Y-85783750D01*
X136452500Y-85783750D02*
X136452500Y-87253750D01*
X136452500Y-87253750D02*
X138912500Y-87253750D01*
X250752500Y-87253750D02*
X253212500Y-87253750D01*
X250752500Y-85783750D02*
X250752500Y-87253750D01*
X253212500Y-85783750D02*
X250752500Y-85783750D01*
X212652500Y-87253750D02*
X215112500Y-87253750D01*
X212652500Y-85783750D02*
X212652500Y-87253750D01*
X215112500Y-85783750D02*
X212652500Y-85783750D01*
X177806250Y-85783750D02*
X175346250Y-85783750D01*
X175346250Y-85783750D02*
X175346250Y-87253750D01*
X175346250Y-87253750D02*
X177806250Y-87253750D01*
X63506250Y-85783750D02*
X61046250Y-85783750D01*
X61046250Y-85783750D02*
X61046250Y-87253750D01*
X61046250Y-87253750D02*
X63506250Y-87253750D01*
X24612500Y-85783750D02*
X22152500Y-85783750D01*
X22152500Y-85783750D02*
X22152500Y-87253750D01*
X22152500Y-87253750D02*
X24612500Y-87253750D01*
%TD*%
M02*
