M48
; DRILL file {KiCad 6.0.0~20210702.eff75b6+dfsg1-1} date Sun Jul 18 18:47:26 2021
; FORMAT={-:-/ absolute / inch / decimal}
; #@! TF.CreationDate,2021-07-18T18:47:26+02:00
; #@! TF.GenerationSoftware,Kicad,Pcbnew,6.0.0~20210702.eff75b6+dfsg1-1
; #@! TF.FileFunction,Plated,1,2,PTH
FMAT,2
INCH
; #@! TA.AperFunction,Plated,PTH,ComponentDrill
T1C0.0276
; #@! TA.AperFunction,Plated,PTH,ComponentDrill
T2C0.0315
; #@! TA.AperFunction,Plated,PTH,ComponentDrill
T3C0.0320
; #@! TA.AperFunction,Plated,PTH,ComponentDrill
T4C0.0354
; #@! TA.AperFunction,Plated,PTH,ComponentDrill
T5C0.0394
; #@! TA.AperFunction,Plated,PTH,ComponentDrill
T6C0.0402
; #@! TA.AperFunction,Plated,PTH,ComponentDrill
T7C0.0579
; #@! TA.AperFunction,Plated,PTH,ComponentDrill
T8C0.0591
%
G90
G05
T1
X13.425Y-5.3135
X13.425Y-5.4375
X13.625Y-5.3135
X13.625Y-5.4375
T2
X7.7812Y-6.2625
X7.7812Y-6.5625
X7.7812Y-7.0125
X7.7812Y-7.3125
X7.7812Y-8.1062
X7.7812Y-8.4062
X7.9688Y-9.2625
X7.9688Y-9.5625
X8.5312Y-6.2625
X8.5312Y-6.5625
X8.5312Y-7.0125
X8.5312Y-7.3125
X8.5312Y-7.7625
X8.5312Y-8.0625
X8.5312Y-8.5125
X8.5312Y-8.8125
X8.9062Y-9.2625
X8.9062Y-9.5625
X9.2812Y-6.2625
X9.2812Y-6.5625
X9.2812Y-7.0125
X9.2812Y-7.3125
X9.2812Y-7.7625
X9.2812Y-8.0625
X9.2812Y-8.5125
X9.2812Y-8.8125
X9.8438Y-9.2625
X9.8438Y-9.5625
X10.0312Y-6.2625
X10.0312Y-6.5625
X10.0312Y-7.0125
X10.0312Y-7.3125
X10.0312Y-7.7625
X10.0312Y-8.0625
X10.0312Y-8.5125
X10.0312Y-8.8125
X10.5938Y-9.2625
X10.5938Y-9.5625
X10.7812Y-6.2625
X10.7812Y-6.5625
X10.7812Y-7.0125
X10.7812Y-7.3125
X10.7812Y-7.7625
X10.7812Y-8.0625
X10.7812Y-8.5125
X10.7812Y-8.8125
X11.5312Y-6.2625
X11.5312Y-6.5625
X11.5312Y-7.0125
X11.5312Y-7.3125
X11.5312Y-7.7625
X11.5312Y-8.0625
X11.5312Y-8.5125
X11.5312Y-8.8125
X12.1562Y-9.2625
X12.1562Y-9.5625
X12.2812Y-6.2625
X12.2812Y-6.5625
X12.2812Y-7.0125
X12.2812Y-7.3125
X12.2812Y-7.7625
X12.2812Y-8.0625
X12.2812Y-8.5125
X12.2812Y-8.8125
X13.0312Y-6.2625
X13.0312Y-6.5625
X13.0312Y-7.0125
X13.0312Y-7.3125
X13.0312Y-7.7625
X13.0312Y-8.0625
X13.0312Y-8.5125
X13.0312Y-8.8125
X13.7812Y-6.2625
X13.7812Y-6.5625
X13.7812Y-7.0125
X13.7812Y-7.3125
X13.7812Y-7.7625
X13.7812Y-8.0625
X13.7812Y-8.5125
X13.7812Y-8.8125
X13.7812Y-9.2625
X13.7812Y-9.5625
X14.5312Y-6.2625
X14.5312Y-6.5625
X14.5312Y-7.0125
X14.5312Y-7.3125
X14.5312Y-7.7625
X14.5312Y-8.0625
X14.5312Y-8.5125
X14.5312Y-8.8125
X14.5312Y-9.2625
X14.5312Y-9.5625
X15.2812Y-6.2625
X15.2812Y-6.5625
X15.2812Y-7.0125
X15.2812Y-7.3125
X15.2812Y-7.7625
X15.2812Y-8.0625
X15.2812Y-8.5125
X15.2812Y-8.8125
X15.2812Y-9.2625
X15.2812Y-9.5625
X16.0Y-9.2625
X16.0Y-9.5625
X16.0312Y-6.2625
X16.0312Y-6.5625
X16.0312Y-7.0125
X16.0312Y-7.3125
X16.0312Y-7.7625
X16.0312Y-8.0625
X16.0312Y-8.5125
X16.0312Y-8.8125
X16.7188Y-9.0
X16.7812Y-6.2625
X16.7812Y-6.5625
X16.7812Y-7.0125
X16.7812Y-7.3125
X16.7812Y-7.85
X16.7812Y-8.15
X16.7812Y-8.2875
X16.7812Y-8.5875
X16.7812Y-9.2625
X16.7812Y-9.5625
X17.0188Y-9.0
X17.1375Y-9.0
X17.1562Y-6.75
X17.1562Y-7.5
X17.4375Y-9.0
X17.4563Y-6.75
X17.4563Y-7.5
T3
X14.6145Y-5.225
X14.6145Y-5.325
X14.6145Y-5.425
X14.6145Y-5.525
T4
X13.8063Y-5.375
X13.9062Y-5.375
X14.1078Y-5.375
X14.2078Y-5.375
T5
X15.2125Y-4.9375
X15.3125Y-4.9375
X16.49Y-5.2766
X16.49Y-5.375
X16.49Y-5.4734
X17.0609Y-5.2766
X17.0609Y-5.4734
T6
X8.5778Y-5.085
X8.5778Y-5.785
X8.6778Y-5.085
X8.6778Y-5.785
X8.7778Y-5.085
X8.7778Y-5.785
X8.8778Y-5.085
X8.8778Y-5.785
X8.9778Y-5.085
X8.9778Y-5.785
X9.0778Y-5.085
X9.0778Y-5.785
X9.1778Y-5.085
X9.1778Y-5.785
X9.2778Y-5.085
X9.2778Y-5.785
X9.3778Y-5.085
X9.3778Y-5.785
X9.4778Y-5.085
X9.4778Y-5.785
X9.5778Y-5.085
X9.5778Y-5.785
X9.6778Y-5.085
X9.6778Y-5.785
X9.7778Y-5.085
X9.7778Y-5.785
X9.8778Y-5.085
X9.8778Y-5.785
X9.9778Y-5.085
X9.9778Y-5.785
X10.0778Y-5.085
X10.0778Y-5.785
X10.1778Y-5.085
X10.1778Y-5.785
X10.2778Y-5.085
X10.2778Y-5.785
X10.3778Y-5.085
X10.3778Y-5.785
X10.4688Y-5.335
X10.4688Y-5.435
X10.4688Y-5.535
X10.4778Y-5.085
X10.4778Y-5.785
T7
X7.2062Y-8.15
X7.2291Y-8.1516
X7.2488Y-8.3484
X7.2562Y-6.275
X7.2562Y-7.025
X7.3062Y-8.4
X7.3078Y-6.2175
X7.3078Y-6.9675
X7.35Y-9.275
X7.4016Y-9.2175
X7.5047Y-6.1978
X7.5047Y-6.9478
X7.5062Y-6.175
X7.5062Y-6.925
X7.5984Y-9.1978
X7.6Y-9.175
X8.0062Y-6.275
X8.0062Y-7.025
X8.0062Y-7.775
X8.0062Y-8.525
X8.0578Y-6.2175
X8.0578Y-6.9675
X8.0578Y-7.7175
X8.0578Y-8.4675
X8.2547Y-6.1978
X8.2547Y-6.9478
X8.2547Y-7.6978
X8.2547Y-8.4478
X8.2562Y-6.175
X8.2562Y-6.925
X8.2562Y-7.675
X8.2562Y-8.425
X8.2875Y-9.275
X8.3391Y-9.2175
X8.5359Y-9.1978
X8.5375Y-9.175
X8.7562Y-6.275
X8.7562Y-7.025
X8.7562Y-7.775
X8.7562Y-8.525
X8.8078Y-6.2175
X8.8078Y-6.9675
X8.8078Y-7.7175
X8.8078Y-8.4675
X9.0047Y-6.1978
X9.0047Y-6.9478
X9.0047Y-7.6978
X9.0047Y-8.4478
X9.0062Y-6.175
X9.0062Y-6.925
X9.0062Y-7.675
X9.0062Y-8.425
X9.225Y-9.275
X9.2766Y-9.2175
X9.4734Y-9.1978
X9.475Y-9.175
X9.5062Y-6.275
X9.5062Y-7.025
X9.5062Y-7.775
X9.5062Y-8.525
X9.5578Y-6.2175
X9.5578Y-6.9675
X9.5578Y-7.7175
X9.5578Y-8.4675
X9.7547Y-6.1978
X9.7547Y-6.9478
X9.7547Y-7.6978
X9.7547Y-8.4478
X9.7562Y-6.175
X9.7562Y-6.925
X9.7562Y-7.675
X9.7562Y-8.425
X10.0687Y-9.275
X10.1203Y-9.2175
X10.2562Y-6.275
X10.2562Y-7.025
X10.2562Y-7.775
X10.2562Y-8.525
X10.3078Y-6.2175
X10.3078Y-6.9675
X10.3078Y-7.7175
X10.3078Y-8.4675
X10.3172Y-9.1978
X10.3187Y-9.175
X10.5047Y-6.1978
X10.5047Y-6.9478
X10.5047Y-7.6978
X10.5047Y-8.4478
X10.5062Y-6.175
X10.5062Y-6.925
X10.5062Y-7.675
X10.5062Y-8.425
X11.0062Y-6.275
X11.0062Y-7.025
X11.0062Y-7.775
X11.0062Y-8.525
X11.0578Y-6.2175
X11.0578Y-6.9675
X11.0578Y-7.7175
X11.0578Y-8.4675
X11.2547Y-6.1978
X11.2547Y-6.9478
X11.2547Y-7.6978
X11.2547Y-8.4478
X11.2562Y-6.175
X11.2562Y-6.925
X11.2562Y-7.675
X11.2562Y-8.425
X11.5687Y-9.275
X11.6203Y-9.2175
X11.7562Y-6.275
X11.7562Y-7.025
X11.7562Y-7.775
X11.7562Y-8.525
X11.8078Y-6.2175
X11.8078Y-6.9675
X11.8078Y-7.7175
X11.8078Y-8.4675
X11.8172Y-9.1978
X11.8187Y-9.175
X12.0047Y-6.1978
X12.0047Y-6.9478
X12.0047Y-7.6978
X12.0047Y-8.4478
X12.0062Y-6.175
X12.0062Y-6.925
X12.0062Y-7.675
X12.0062Y-8.425
X12.5062Y-6.275
X12.5062Y-7.025
X12.5062Y-7.775
X12.5062Y-8.525
X12.5578Y-6.2175
X12.5578Y-6.9675
X12.5578Y-7.7175
X12.5578Y-8.4675
X12.7547Y-6.1978
X12.7547Y-6.9478
X12.7547Y-7.6978
X12.7547Y-8.4478
X12.7562Y-6.175
X12.7562Y-6.925
X12.7562Y-7.675
X12.7562Y-8.425
X13.1625Y-9.275
X13.2141Y-9.2175
X13.2562Y-6.275
X13.2562Y-7.025
X13.2562Y-7.775
X13.2562Y-8.525
X13.3078Y-6.2175
X13.3078Y-6.9675
X13.3078Y-7.7175
X13.3078Y-8.4675
X13.4109Y-9.1978
X13.4125Y-9.175
X13.5047Y-6.1978
X13.5047Y-6.9478
X13.5047Y-7.6978
X13.5047Y-8.4478
X13.5062Y-6.175
X13.5062Y-6.925
X13.5062Y-7.675
X13.5062Y-8.425
X14.0062Y-6.275
X14.0062Y-7.025
X14.0062Y-7.775
X14.0062Y-8.525
X14.0062Y-9.275
X14.0578Y-6.2175
X14.0578Y-6.9675
X14.0578Y-7.7175
X14.0578Y-8.4675
X14.0578Y-9.2175
X14.2547Y-6.1978
X14.2547Y-6.9478
X14.2547Y-7.6978
X14.2547Y-8.4478
X14.2547Y-9.1978
X14.2562Y-6.175
X14.2562Y-6.925
X14.2562Y-7.675
X14.2562Y-8.425
X14.2562Y-9.175
X14.7562Y-6.275
X14.7562Y-7.025
X14.7562Y-7.775
X14.7562Y-8.525
X14.7562Y-9.275
X14.8078Y-6.2175
X14.8078Y-6.9675
X14.8078Y-7.7175
X14.8078Y-8.4675
X14.8078Y-9.2175
X15.0047Y-6.1978
X15.0047Y-6.9478
X15.0047Y-7.6978
X15.0047Y-8.4478
X15.0047Y-9.1978
X15.0062Y-6.175
X15.0062Y-6.925
X15.0062Y-7.675
X15.0062Y-8.425
X15.0062Y-9.175
X15.5062Y-6.275
X15.5062Y-7.025
X15.5062Y-7.775
X15.5062Y-8.525
X15.5062Y-9.275
X15.5578Y-6.2175
X15.5578Y-6.9675
X15.5578Y-7.7175
X15.5578Y-8.4675
X15.5578Y-9.2175
X15.7547Y-6.1978
X15.7547Y-6.9478
X15.7547Y-7.6978
X15.7547Y-8.4478
X15.7547Y-9.1978
X15.7562Y-6.175
X15.7562Y-6.925
X15.7562Y-7.675
X15.7562Y-8.425
X15.7562Y-9.175
X16.2562Y-6.275
X16.2562Y-7.025
X16.2562Y-7.775
X16.2562Y-8.525
X16.2562Y-9.275
X16.3078Y-6.2175
X16.3078Y-6.9675
X16.3078Y-7.7175
X16.3078Y-8.4675
X16.3078Y-9.2175
X16.5047Y-6.1978
X16.5047Y-6.9478
X16.5047Y-7.6978
X16.5047Y-8.4478
X16.5047Y-9.1978
X16.5062Y-6.175
X16.5062Y-6.925
X16.5062Y-7.675
X16.5062Y-8.425
X16.5062Y-9.175
X16.9563Y-8.15
X16.9791Y-8.1516
X16.9988Y-8.3484
X17.0062Y-6.275
X17.0062Y-7.025
X17.0062Y-9.275
X17.0562Y-8.4
X17.0578Y-6.2175
X17.0578Y-6.9675
X17.0578Y-9.2175
X17.2547Y-6.1978
X17.2547Y-6.9478
X17.2547Y-9.1978
X17.2562Y-6.175
X17.2562Y-6.925
X17.2562Y-9.175
T8
G00X16.7597Y-5.1545
M15
G01X16.8109Y-5.1545
M16
G05
G00X16.7597Y-5.5955
M15
G01X16.8109Y-5.5955
M16
G05
T0
M30
