%TF.GenerationSoftware,KiCad,Pcbnew,6.0.0~20210702.eff75b6+dfsg1-1*%
%TF.CreationDate,2021-07-18T18:47:18+02:00*%
%TF.ProjectId,keyboard,6b657962-6f61-4726-942e-6b696361645f,rev?*%
%TF.SameCoordinates,Original*%
%TF.FileFunction,Soldermask,Top*%
%TF.FilePolarity,Negative*%
%FSLAX46Y46*%
G04 Gerber Fmt 4.6, Leading zero omitted, Abs format (unit mm)*
G04 Created by KiCad (PCBNEW 6.0.0~20210702.eff75b6+dfsg1-1) date 2021-07-18 18:47:18*
%MOMM*%
%LPD*%
G01*
G04 APERTURE LIST*
%ADD10C,3.987800*%
%ADD11C,1.750000*%
%ADD12C,3.048000*%
%ADD13C,3.200000*%
%ADD14R,1.700000X1.700000*%
%ADD15O,1.700000X1.700000*%
%ADD16O,1.400000X1.400000*%
%ADD17C,1.400000*%
%ADD18R,1.800000X1.800000*%
%ADD19C,1.800000*%
%ADD20R,3.500000X1.700000*%
%ADD21R,1.700000X3.500000*%
%ADD22O,1.800000X1.800000*%
%ADD23O,1.500000X1.500000*%
%ADD24C,2.000000*%
%ADD25R,3.200000X2.000000*%
%ADD26R,2.000000X2.000000*%
%ADD27R,1.600000X1.600000*%
%ADD28O,1.600000X1.600000*%
G04 APERTURE END LIST*
D10*
%TO.C,K4_0*%
X190500000Y-238125000D03*
D11*
X185420000Y-238125000D03*
X195580000Y-238125000D03*
%TD*%
D10*
%TO.C,K3_13*%
X435768750Y-209550000D03*
D11*
X435768750Y-214630000D03*
X435768750Y-204470000D03*
D12*
X428783750Y-221488000D03*
X428783750Y-197612000D03*
D10*
X444023750Y-221488000D03*
X444023750Y-197612000D03*
%TD*%
%TO.C,K3_0*%
X188118750Y-209550000D03*
D11*
X188118750Y-214630000D03*
X188118750Y-204470000D03*
D12*
X181133750Y-221488000D03*
X181133750Y-197612000D03*
D10*
X196373750Y-221488000D03*
X196373750Y-197612000D03*
%TD*%
D13*
%TO.C,M3_8*%
X311943750Y-171450000D03*
%TD*%
D14*
%TO.C,SW2*%
X388937500Y-125412500D03*
D15*
X386397500Y-125412500D03*
%TD*%
D13*
%TO.C,M3_3*%
X216693750Y-171450000D03*
%TD*%
%TO.C,M3_4*%
X407193750Y-171450000D03*
%TD*%
%TO.C,M3_5*%
X311943750Y-209550000D03*
%TD*%
%TO.C,M3_7*%
X407193750Y-228600000D03*
%TD*%
%TO.C,M3_6*%
X216693750Y-228600000D03*
%TD*%
%TO.C,M3_2*%
X441325000Y-127000000D03*
%TD*%
%TO.C,M3_1*%
X182562500Y-127000000D03*
%TD*%
D16*
%TO.C,R2*%
X346075000Y-138112500D03*
D17*
X340995000Y-138112500D03*
%TD*%
%TO.C,R1*%
X340995000Y-134962500D03*
D16*
X346075000Y-134962500D03*
%TD*%
D18*
%TO.C,D2*%
X358337500Y-136525000D03*
D19*
X360877500Y-136525000D03*
%TD*%
D18*
%TO.C,D1*%
X353218750Y-136525000D03*
D19*
X350678750Y-136525000D03*
%TD*%
D11*
%TO.C,K0_5*%
X288448750Y-161925000D03*
X278288750Y-161925000D03*
D10*
X283368750Y-161925000D03*
%TD*%
D11*
%TO.C,K0_3*%
X250348750Y-161925000D03*
D10*
X245268750Y-161925000D03*
D11*
X240188750Y-161925000D03*
%TD*%
D15*
%TO.C,Pico1*%
X265906250Y-135509000D03*
D20*
X266806250Y-135509000D03*
X266806250Y-138049000D03*
D14*
X265906250Y-138049000D03*
D20*
X266806250Y-140589000D03*
D15*
X265906250Y-140589000D03*
X217876250Y-129159000D03*
D21*
X217876250Y-128259000D03*
X220416250Y-128259000D03*
D15*
X220416250Y-129159000D03*
D14*
X222956250Y-129159000D03*
D21*
X222956250Y-128259000D03*
D15*
X225496250Y-129159000D03*
D21*
X225496250Y-128259000D03*
D15*
X228036250Y-129159000D03*
D21*
X228036250Y-128259000D03*
D15*
X230576250Y-129159000D03*
D21*
X230576250Y-128259000D03*
X233116250Y-128259000D03*
D15*
X233116250Y-129159000D03*
D14*
X235656250Y-129159000D03*
D21*
X235656250Y-128259000D03*
X238196250Y-128259000D03*
D15*
X238196250Y-129159000D03*
D21*
X240736250Y-128259000D03*
D15*
X240736250Y-129159000D03*
X243276250Y-129159000D03*
D21*
X243276250Y-128259000D03*
D15*
X245816250Y-129159000D03*
D21*
X245816250Y-128259000D03*
X248356250Y-128259000D03*
D14*
X248356250Y-129159000D03*
D21*
X250896250Y-128259000D03*
D15*
X250896250Y-129159000D03*
X253436250Y-129159000D03*
D21*
X253436250Y-128259000D03*
D15*
X255976250Y-129159000D03*
D21*
X255976250Y-128259000D03*
D15*
X258516250Y-129159000D03*
D21*
X258516250Y-128259000D03*
D14*
X261056250Y-129159000D03*
D21*
X261056250Y-128259000D03*
D15*
X263596250Y-129159000D03*
D21*
X263596250Y-128259000D03*
D15*
X266136250Y-129159000D03*
D21*
X266136250Y-128259000D03*
X266136250Y-147839000D03*
D15*
X266136250Y-146939000D03*
X263596250Y-146939000D03*
D21*
X263596250Y-147839000D03*
D14*
X261056250Y-146939000D03*
D21*
X261056250Y-147839000D03*
X258516250Y-147839000D03*
D15*
X258516250Y-146939000D03*
D21*
X255976250Y-147839000D03*
D15*
X255976250Y-146939000D03*
X253436250Y-146939000D03*
D21*
X253436250Y-147839000D03*
D15*
X250896250Y-146939000D03*
D21*
X250896250Y-147839000D03*
X248356250Y-147839000D03*
D14*
X248356250Y-146939000D03*
D21*
X245816250Y-147839000D03*
D15*
X245816250Y-146939000D03*
X243276250Y-146939000D03*
D21*
X243276250Y-147839000D03*
X240736250Y-147839000D03*
D15*
X240736250Y-146939000D03*
D21*
X238196250Y-147839000D03*
D15*
X238196250Y-146939000D03*
D21*
X235656250Y-147839000D03*
D14*
X235656250Y-146939000D03*
D15*
X233116250Y-146939000D03*
D21*
X233116250Y-147839000D03*
D15*
X230576250Y-146939000D03*
D21*
X230576250Y-147839000D03*
D15*
X228036250Y-146939000D03*
D21*
X228036250Y-147839000D03*
X225496250Y-147839000D03*
D15*
X225496250Y-146939000D03*
D14*
X222956250Y-146939000D03*
D21*
X222956250Y-147839000D03*
D15*
X220416250Y-146939000D03*
D21*
X220416250Y-147839000D03*
X217876250Y-147839000D03*
D15*
X217876250Y-146939000D03*
D22*
X218006250Y-140774000D03*
D23*
X221036250Y-135624000D03*
D22*
X218006250Y-135324000D03*
D23*
X221036250Y-140474000D03*
%TD*%
D24*
%TO.C,SW1*%
X433346000Y-134025000D03*
X433346000Y-139025000D03*
D25*
X426346000Y-130925000D03*
X426346000Y-142125000D03*
D24*
X418846000Y-136525000D03*
X418846000Y-139025000D03*
D26*
X418846000Y-134025000D03*
%TD*%
D11*
%TO.C,K1_2*%
X231298750Y-180975000D03*
D10*
X226218750Y-180975000D03*
D11*
X221138750Y-180975000D03*
%TD*%
D10*
%TO.C,K4_1*%
X214312500Y-238125000D03*
D11*
X219392500Y-238125000D03*
X209232500Y-238125000D03*
%TD*%
%TO.C,K3_12*%
X411638750Y-219075000D03*
D10*
X416718750Y-219075000D03*
D11*
X421798750Y-219075000D03*
%TD*%
%TO.C,K3_6*%
X307498750Y-219075000D03*
X297338750Y-219075000D03*
D10*
X302418750Y-219075000D03*
%TD*%
D11*
%TO.C,K1_0*%
X183038750Y-180975000D03*
X193198750Y-180975000D03*
D10*
X188118750Y-180975000D03*
%TD*%
D11*
%TO.C,K3_9*%
X354488750Y-219075000D03*
D10*
X359568750Y-219075000D03*
D11*
X364648750Y-219075000D03*
%TD*%
%TO.C,K4_3*%
X233045000Y-238125000D03*
X243205000Y-238125000D03*
D10*
X238125000Y-238125000D03*
%TD*%
%TO.C,K0_12*%
X416718750Y-161925000D03*
D11*
X421798750Y-161925000D03*
X411638750Y-161925000D03*
%TD*%
%TO.C,K4_8*%
X333057500Y-238125000D03*
D10*
X338137500Y-238125000D03*
D11*
X343217500Y-238125000D03*
%TD*%
%TO.C,K3_1*%
X212248750Y-219075000D03*
X202088750Y-219075000D03*
D10*
X207168750Y-219075000D03*
%TD*%
D11*
%TO.C,K1_1*%
X202088750Y-180975000D03*
X212248750Y-180975000D03*
D10*
X207168750Y-180975000D03*
%TD*%
D11*
%TO.C,K4_10*%
X373538750Y-238125000D03*
D10*
X378618750Y-238125000D03*
D11*
X383698750Y-238125000D03*
%TD*%
%TO.C,K2_2*%
X221138750Y-200025000D03*
X231298750Y-200025000D03*
D10*
X226218750Y-200025000D03*
%TD*%
D11*
%TO.C,K3_2*%
X221138750Y-219075000D03*
X231298750Y-219075000D03*
D10*
X226218750Y-219075000D03*
%TD*%
D11*
%TO.C,K3_8*%
X345598750Y-219075000D03*
X335438750Y-219075000D03*
D10*
X340518750Y-219075000D03*
%TD*%
D11*
%TO.C,K1_5*%
X288448750Y-180975000D03*
X278288750Y-180975000D03*
D10*
X283368750Y-180975000D03*
%TD*%
%TO.C,K4_13*%
X435768750Y-238125000D03*
D11*
X440848750Y-238125000D03*
X430688750Y-238125000D03*
%TD*%
D10*
%TO.C,K1_4*%
X264318750Y-180975000D03*
D11*
X269398750Y-180975000D03*
X259238750Y-180975000D03*
%TD*%
%TO.C,K1_12*%
X411638750Y-180975000D03*
X421798750Y-180975000D03*
D10*
X416718750Y-180975000D03*
%TD*%
D11*
%TO.C,K2_1*%
X202088750Y-200025000D03*
D10*
X207168750Y-200025000D03*
D11*
X212248750Y-200025000D03*
%TD*%
%TO.C,K2_8*%
X335438750Y-200025000D03*
X345598750Y-200025000D03*
D10*
X340518750Y-200025000D03*
%TD*%
D11*
%TO.C,K4_11*%
X402748750Y-238125000D03*
X392588750Y-238125000D03*
D10*
X397668750Y-238125000D03*
%TD*%
%TO.C,K3_11*%
X397668750Y-219075000D03*
D11*
X392588750Y-219075000D03*
X402748750Y-219075000D03*
%TD*%
D10*
%TO.C,K0_2*%
X226218750Y-161925000D03*
D11*
X231298750Y-161925000D03*
X221138750Y-161925000D03*
%TD*%
%TO.C,K2_4*%
X259238750Y-200025000D03*
D10*
X264318750Y-200025000D03*
D11*
X269398750Y-200025000D03*
%TD*%
%TO.C,K3_10*%
X383698750Y-219075000D03*
X373538750Y-219075000D03*
D10*
X378618750Y-219075000D03*
%TD*%
D11*
%TO.C,K2_10*%
X383698750Y-200025000D03*
D10*
X378618750Y-200025000D03*
D11*
X373538750Y-200025000D03*
%TD*%
%TO.C,K0_10*%
X383698750Y-161925000D03*
D10*
X378618750Y-161925000D03*
D11*
X373538750Y-161925000D03*
%TD*%
D10*
%TO.C,K3_5*%
X283368750Y-219075000D03*
D11*
X278288750Y-219075000D03*
X288448750Y-219075000D03*
%TD*%
%TO.C,K0_0*%
X183038750Y-161925000D03*
D10*
X188118750Y-161925000D03*
D11*
X193198750Y-161925000D03*
%TD*%
D10*
%TO.C,K4_6*%
X278606250Y-246380000D03*
D11*
X302736250Y-238125000D03*
X292576250Y-238125000D03*
D12*
X316706250Y-231140000D03*
D10*
X297656250Y-238125000D03*
X316706250Y-246380000D03*
D12*
X278606250Y-231140000D03*
%TD*%
D10*
%TO.C,K4_12*%
X416718750Y-238125000D03*
D11*
X421798750Y-238125000D03*
X411638750Y-238125000D03*
%TD*%
%TO.C,K0_13*%
X430688750Y-161925000D03*
D10*
X435768750Y-161925000D03*
D11*
X440848750Y-161925000D03*
%TD*%
%TO.C,K0_4*%
X269398750Y-161925000D03*
D10*
X264318750Y-161925000D03*
D11*
X259238750Y-161925000D03*
%TD*%
D10*
%TO.C,K1_7*%
X321468750Y-180975000D03*
D11*
X316388750Y-180975000D03*
X326548750Y-180975000D03*
%TD*%
%TO.C,K1_10*%
X383698750Y-180975000D03*
X373538750Y-180975000D03*
D10*
X378618750Y-180975000D03*
%TD*%
D11*
%TO.C,K3_7*%
X316388750Y-219075000D03*
D10*
X321468750Y-219075000D03*
D11*
X326548750Y-219075000D03*
%TD*%
%TO.C,K2_12*%
X411638750Y-200025000D03*
D10*
X416718750Y-200025000D03*
D11*
X421798750Y-200025000D03*
%TD*%
D10*
%TO.C,K2_9*%
X359568750Y-200025000D03*
D11*
X354488750Y-200025000D03*
X364648750Y-200025000D03*
%TD*%
%TO.C,K3_4*%
X259238750Y-219075000D03*
D10*
X264318750Y-219075000D03*
D11*
X269398750Y-219075000D03*
%TD*%
D10*
%TO.C,K0_9*%
X359568750Y-161925000D03*
D11*
X364648750Y-161925000D03*
X354488750Y-161925000D03*
%TD*%
%TO.C,K0_7*%
X316388750Y-161925000D03*
X326548750Y-161925000D03*
D10*
X321468750Y-161925000D03*
%TD*%
D11*
%TO.C,K2_6*%
X297338750Y-200025000D03*
X307498750Y-200025000D03*
D10*
X302418750Y-200025000D03*
%TD*%
D11*
%TO.C,K0_8*%
X335438750Y-161925000D03*
X345598750Y-161925000D03*
D10*
X340518750Y-161925000D03*
%TD*%
%TO.C,K2_7*%
X321468750Y-200025000D03*
D11*
X326548750Y-200025000D03*
X316388750Y-200025000D03*
%TD*%
%TO.C,K4_4*%
X264636250Y-238125000D03*
D10*
X259556250Y-238125000D03*
D11*
X254476250Y-238125000D03*
%TD*%
D10*
%TO.C,K1_8*%
X340518750Y-180975000D03*
D11*
X345598750Y-180975000D03*
X335438750Y-180975000D03*
%TD*%
D10*
%TO.C,K1_3*%
X245268750Y-180975000D03*
D11*
X250348750Y-180975000D03*
X240188750Y-180975000D03*
%TD*%
%TO.C,K1_9*%
X354488750Y-180975000D03*
D10*
X359568750Y-180975000D03*
D11*
X364648750Y-180975000D03*
%TD*%
%TO.C,K2_11*%
X392588750Y-200025000D03*
D10*
X397668750Y-200025000D03*
D11*
X402748750Y-200025000D03*
%TD*%
D10*
%TO.C,K0_1*%
X207168750Y-161925000D03*
D11*
X212248750Y-161925000D03*
X202088750Y-161925000D03*
%TD*%
D10*
%TO.C,K1_11*%
X397668750Y-180975000D03*
D11*
X392588750Y-180975000D03*
X402748750Y-180975000D03*
%TD*%
%TO.C,K2_3*%
X250348750Y-200025000D03*
D10*
X245268750Y-200025000D03*
D11*
X240188750Y-200025000D03*
%TD*%
D10*
%TO.C,K3_3*%
X245268750Y-219075000D03*
D11*
X240188750Y-219075000D03*
X250348750Y-219075000D03*
%TD*%
%TO.C,K2_5*%
X278288750Y-200025000D03*
X288448750Y-200025000D03*
D10*
X283368750Y-200025000D03*
%TD*%
D11*
%TO.C,K1_13*%
X440848750Y-180975000D03*
D10*
X435768750Y-180975000D03*
D11*
X430688750Y-180975000D03*
%TD*%
%TO.C,K0_11*%
X402748750Y-161925000D03*
D10*
X397668750Y-161925000D03*
D11*
X392588750Y-161925000D03*
%TD*%
D10*
%TO.C,K0_6*%
X302418750Y-161925000D03*
D11*
X307498750Y-161925000D03*
X297338750Y-161925000D03*
%TD*%
D10*
%TO.C,K4_9*%
X359568750Y-238125000D03*
D11*
X364648750Y-238125000D03*
X354488750Y-238125000D03*
%TD*%
%TO.C,K1_6*%
X307498750Y-180975000D03*
D10*
X302418750Y-180975000D03*
D11*
X297338750Y-180975000D03*
%TD*%
D27*
%TO.C,D0_0*%
X197643750Y-166687500D03*
D28*
X197643750Y-159067500D03*
%TD*%
D27*
%TO.C,D0_13*%
X435768750Y-171450000D03*
D28*
X443388750Y-171450000D03*
%TD*%
D27*
%TO.C,D0_12*%
X426243750Y-166687500D03*
D28*
X426243750Y-159067500D03*
%TD*%
D27*
%TO.C,D0_10*%
X388143750Y-166687500D03*
D28*
X388143750Y-159067500D03*
%TD*%
D27*
%TO.C,D0_9*%
X369093750Y-166687500D03*
D28*
X369093750Y-159067500D03*
%TD*%
D27*
%TO.C,D0_8*%
X350043750Y-166687500D03*
D28*
X350043750Y-159067500D03*
%TD*%
D27*
%TO.C,D0_7*%
X330993750Y-166687500D03*
D28*
X330993750Y-159067500D03*
%TD*%
D27*
%TO.C,D0_5*%
X292893750Y-166687500D03*
D28*
X292893750Y-159067500D03*
%TD*%
D27*
%TO.C,D0_4*%
X273843750Y-166687500D03*
D28*
X273843750Y-159067500D03*
%TD*%
D27*
%TO.C,D0_3*%
X254793750Y-166687500D03*
D28*
X254793750Y-159067500D03*
%TD*%
D27*
%TO.C,D0_2*%
X235743750Y-166687500D03*
D28*
X235743750Y-159067500D03*
%TD*%
D27*
%TO.C,D1_1*%
X216693750Y-185737500D03*
D28*
X216693750Y-178117500D03*
%TD*%
D27*
%TO.C,D1_0*%
X197643750Y-185737500D03*
D28*
X197643750Y-178117500D03*
%TD*%
D27*
%TO.C,D1_2*%
X235743750Y-185737500D03*
D28*
X235743750Y-178117500D03*
%TD*%
D27*
%TO.C,D1_3*%
X254793750Y-185737500D03*
D28*
X254793750Y-178117500D03*
%TD*%
D27*
%TO.C,D1_4*%
X273843750Y-185737500D03*
D28*
X273843750Y-178117500D03*
%TD*%
D27*
%TO.C,D1_6*%
X311943750Y-185737500D03*
D28*
X311943750Y-178117500D03*
%TD*%
D27*
%TO.C,D1_12*%
X426243750Y-185737500D03*
D28*
X426243750Y-178117500D03*
%TD*%
D27*
%TO.C,D1_11*%
X407193750Y-185737500D03*
D28*
X407193750Y-178117500D03*
%TD*%
D27*
%TO.C,D1_10*%
X388143750Y-185737500D03*
D28*
X388143750Y-178117500D03*
%TD*%
D27*
%TO.C,D1_8*%
X350043750Y-185737500D03*
D28*
X350043750Y-178117500D03*
%TD*%
D27*
%TO.C,D1_7*%
X330993750Y-185737500D03*
D28*
X330993750Y-178117500D03*
%TD*%
D27*
%TO.C,D1_9*%
X369093750Y-185737500D03*
D28*
X369093750Y-178117500D03*
%TD*%
D27*
%TO.C,D1_5*%
X292893750Y-185737500D03*
D28*
X292893750Y-178117500D03*
%TD*%
D27*
%TO.C,D2_6*%
X311943750Y-204787500D03*
D28*
X311943750Y-197167500D03*
%TD*%
D27*
%TO.C,D2_7*%
X330993750Y-204787500D03*
D28*
X330993750Y-197167500D03*
%TD*%
D27*
%TO.C,D2_8*%
X350043750Y-204787500D03*
D28*
X350043750Y-197167500D03*
%TD*%
D27*
%TO.C,D2_9*%
X369093750Y-204787500D03*
D28*
X369093750Y-197167500D03*
%TD*%
D27*
%TO.C,D2_10*%
X388143750Y-204787500D03*
D28*
X388143750Y-197167500D03*
%TD*%
D27*
%TO.C,D2_11*%
X407193750Y-204787500D03*
D28*
X407193750Y-197167500D03*
%TD*%
D27*
%TO.C,D2_12*%
X426243750Y-207010000D03*
D28*
X426243750Y-199390000D03*
%TD*%
D27*
%TO.C,D2_5*%
X292893750Y-204787500D03*
D28*
X292893750Y-197167500D03*
%TD*%
D27*
%TO.C,D2_4*%
X273843750Y-204787500D03*
D28*
X273843750Y-197167500D03*
%TD*%
D27*
%TO.C,D2_3*%
X254793750Y-204787500D03*
D28*
X254793750Y-197167500D03*
%TD*%
D27*
%TO.C,D2_2*%
X235743750Y-204787500D03*
D28*
X235743750Y-197167500D03*
%TD*%
D27*
%TO.C,D2_1*%
X216693750Y-204787500D03*
D28*
X216693750Y-197167500D03*
%TD*%
D27*
%TO.C,D3_0*%
X197643750Y-213518750D03*
D28*
X197643750Y-205898750D03*
%TD*%
D27*
%TO.C,D3_3*%
X254793750Y-223837500D03*
D28*
X254793750Y-216217500D03*
%TD*%
D27*
%TO.C,D3_13*%
X424656250Y-228600000D03*
D28*
X432276250Y-228600000D03*
%TD*%
D27*
%TO.C,D3_12*%
X426243750Y-218122500D03*
D28*
X426243750Y-210502500D03*
%TD*%
D27*
%TO.C,D3_11*%
X407193750Y-223837500D03*
D28*
X407193750Y-216217500D03*
%TD*%
D27*
%TO.C,D3_9*%
X369093750Y-223837500D03*
D28*
X369093750Y-216217500D03*
%TD*%
D27*
%TO.C,D3_8*%
X350043750Y-223837500D03*
D28*
X350043750Y-216217500D03*
%TD*%
D27*
%TO.C,D3_7*%
X330993750Y-223837500D03*
D28*
X330993750Y-216217500D03*
%TD*%
D27*
%TO.C,D3_6*%
X311943750Y-223837500D03*
D28*
X311943750Y-216217500D03*
%TD*%
D27*
%TO.C,D3_4*%
X273843750Y-223837500D03*
D28*
X273843750Y-216217500D03*
%TD*%
D27*
%TO.C,D3_1*%
X216693750Y-223837500D03*
D28*
X216693750Y-216217500D03*
%TD*%
D27*
%TO.C,D4_13*%
X435292500Y-228600000D03*
D28*
X442912500Y-228600000D03*
%TD*%
D27*
%TO.C,D4_1*%
X226218750Y-242887500D03*
D28*
X226218750Y-235267500D03*
%TD*%
D27*
%TO.C,D4_3*%
X250031250Y-242887500D03*
D28*
X250031250Y-235267500D03*
%TD*%
D27*
%TO.C,D4_4*%
X269081250Y-242887500D03*
D28*
X269081250Y-235267500D03*
%TD*%
D27*
%TO.C,D4_6*%
X308768750Y-242887500D03*
D28*
X308768750Y-235267500D03*
%TD*%
D27*
%TO.C,D4_8*%
X350043750Y-242887500D03*
D28*
X350043750Y-235267500D03*
%TD*%
D27*
%TO.C,D4_9*%
X369093750Y-242887500D03*
D28*
X369093750Y-235267500D03*
%TD*%
D27*
%TO.C,D4_10*%
X388143750Y-242887500D03*
D28*
X388143750Y-235267500D03*
%TD*%
D27*
%TO.C,D4_11*%
X406400000Y-242887500D03*
D28*
X406400000Y-235267500D03*
%TD*%
D27*
%TO.C,D4_12*%
X426243750Y-242887500D03*
D28*
X426243750Y-235267500D03*
%TD*%
D27*
%TO.C,D0_11*%
X407193750Y-166687500D03*
D28*
X407193750Y-159067500D03*
%TD*%
D27*
%TO.C,D0_6*%
X311943750Y-166687500D03*
D28*
X311943750Y-159067500D03*
%TD*%
D27*
%TO.C,D3_2*%
X235743750Y-223837500D03*
D28*
X235743750Y-216217500D03*
%TD*%
D27*
%TO.C,D1_13*%
X435768750Y-190500000D03*
D28*
X443388750Y-190500000D03*
%TD*%
D27*
%TO.C,D3_10*%
X388143750Y-223837500D03*
D28*
X388143750Y-216217500D03*
%TD*%
D27*
%TO.C,D0_1*%
X216693750Y-166687500D03*
D28*
X216693750Y-159067500D03*
%TD*%
D27*
%TO.C,D4_0*%
X202406250Y-242887500D03*
D28*
X202406250Y-235267500D03*
%TD*%
D27*
%TO.C,D3_5*%
X292893750Y-223837500D03*
D28*
X292893750Y-216217500D03*
%TD*%
M02*
