M48
; DRILL file {KiCad 6.0.0~20210702.eff75b6+dfsg1-1} date Sun Jul 18 18:47:26 2021
; FORMAT={-:-/ absolute / inch / decimal}
; #@! TF.CreationDate,2021-07-18T18:47:26+02:00
; #@! TF.GenerationSoftware,Kicad,Pcbnew,6.0.0~20210702.eff75b6+dfsg1-1
; #@! TF.FileFunction,NonPlated,1,2,NPTH
FMAT,2
INCH
; #@! TA.AperFunction,NonPlated,NPTH,ComponentDrill
T1C0.0591
; #@! TA.AperFunction,NonPlated,NPTH,ComponentDrill
T2C0.0689
; #@! TA.AperFunction,NonPlated,NPTH,ComponentDrill
T3C0.0709
; #@! TA.AperFunction,NonPlated,NPTH,ComponentDrill
T4C0.1200
; #@! TA.AperFunction,NonPlated,NPTH,ComponentDrill
T5C0.1260
; #@! TA.AperFunction,NonPlated,NPTH,ComponentDrill
T6C0.1570
%
G90
G05
T1
X8.7022Y-5.3395
X8.7022Y-5.5305
T2
X7.2062Y-6.375
X7.2062Y-7.125
X7.3Y-9.375
X7.4062Y-8.05
X7.4062Y-8.45
X7.6063Y-6.375
X7.6063Y-7.125
X7.7Y-9.375
X7.9562Y-6.375
X7.9562Y-7.125
X7.9562Y-7.875
X7.9562Y-8.625
X8.2375Y-9.375
X8.3562Y-6.375
X8.3562Y-7.125
X8.3562Y-7.875
X8.3562Y-8.625
X8.6375Y-9.375
X8.7062Y-6.375
X8.7062Y-7.125
X8.7062Y-7.875
X8.7062Y-8.625
X9.1062Y-6.375
X9.1062Y-7.125
X9.1062Y-7.875
X9.1062Y-8.625
X9.175Y-9.375
X9.4562Y-6.375
X9.4562Y-7.125
X9.4562Y-7.875
X9.4562Y-8.625
X9.575Y-9.375
X9.8562Y-6.375
X9.8562Y-7.125
X9.8562Y-7.875
X9.8562Y-8.625
X10.0187Y-9.375
X10.2062Y-6.375
X10.2062Y-7.125
X10.2062Y-7.875
X10.2062Y-8.625
X10.4187Y-9.375
X10.6062Y-6.375
X10.6062Y-7.125
X10.6062Y-7.875
X10.6062Y-8.625
X10.9562Y-6.375
X10.9562Y-7.125
X10.9562Y-7.875
X10.9562Y-8.625
X11.3562Y-6.375
X11.3562Y-7.125
X11.3562Y-7.875
X11.3562Y-8.625
X11.5187Y-9.375
X11.7062Y-6.375
X11.7062Y-7.125
X11.7062Y-7.875
X11.7062Y-8.625
X11.9187Y-9.375
X12.1062Y-6.375
X12.1062Y-7.125
X12.1062Y-7.875
X12.1062Y-8.625
X12.4562Y-6.375
X12.4562Y-7.125
X12.4562Y-7.875
X12.4562Y-8.625
X12.8562Y-6.375
X12.8562Y-7.125
X12.8562Y-7.875
X12.8562Y-8.625
X13.1125Y-9.375
X13.2062Y-6.375
X13.2062Y-7.125
X13.2062Y-7.875
X13.2062Y-8.625
X13.5125Y-9.375
X13.6062Y-6.375
X13.6062Y-7.125
X13.6062Y-7.875
X13.6062Y-8.625
X13.9562Y-6.375
X13.9562Y-7.125
X13.9562Y-7.875
X13.9562Y-8.625
X13.9562Y-9.375
X14.3562Y-6.375
X14.3562Y-7.125
X14.3562Y-7.875
X14.3562Y-8.625
X14.3562Y-9.375
X14.7062Y-6.375
X14.7062Y-7.125
X14.7062Y-7.875
X14.7062Y-8.625
X14.7062Y-9.375
X15.1062Y-6.375
X15.1062Y-7.125
X15.1062Y-7.875
X15.1062Y-8.625
X15.1062Y-9.375
X15.4562Y-6.375
X15.4562Y-7.125
X15.4562Y-7.875
X15.4562Y-8.625
X15.4562Y-9.375
X15.8562Y-6.375
X15.8562Y-7.125
X15.8562Y-7.875
X15.8562Y-8.625
X15.8562Y-9.375
X16.2063Y-6.375
X16.2063Y-7.125
X16.2063Y-7.875
X16.2063Y-8.625
X16.2063Y-9.375
X16.6062Y-6.375
X16.6062Y-7.125
X16.6062Y-7.875
X16.6062Y-8.625
X16.6062Y-9.375
X16.9563Y-6.375
X16.9563Y-7.125
X16.9563Y-9.375
X17.1562Y-8.05
X17.1562Y-8.45
X17.3562Y-6.375
X17.3562Y-7.125
X17.3562Y-9.375
T3
X8.5829Y-5.3277
X8.5829Y-5.5423
T4
X7.1312Y-7.78
X7.1312Y-8.72
X10.9688Y-9.1
X12.4688Y-9.1
X16.8812Y-7.78
X16.8812Y-8.72
T5
X7.1875Y-5.0
X8.5312Y-6.75
X8.5312Y-9.0
X12.2812Y-6.75
X12.2812Y-8.25
X16.0312Y-6.75
X16.0312Y-9.0
X17.375Y-5.0
T6
X7.4062Y-6.375
X7.4062Y-7.125
X7.4062Y-8.25
X7.5Y-9.375
X7.7313Y-7.78
X7.7313Y-8.72
X8.1562Y-6.375
X8.1562Y-7.125
X8.1562Y-7.875
X8.1562Y-8.625
X8.4375Y-9.375
X8.9062Y-6.375
X8.9062Y-7.125
X8.9062Y-7.875
X8.9062Y-8.625
X9.375Y-9.375
X9.6562Y-6.375
X9.6562Y-7.125
X9.6562Y-7.875
X9.6562Y-8.625
X10.2188Y-9.375
X10.4062Y-6.375
X10.4062Y-7.125
X10.4062Y-7.875
X10.4062Y-8.625
X10.9688Y-9.7
X11.1562Y-6.375
X11.1562Y-7.125
X11.1562Y-7.875
X11.1562Y-8.625
X11.7188Y-9.375
X11.9062Y-6.375
X11.9062Y-7.125
X11.9062Y-7.875
X11.9062Y-8.625
X12.4688Y-9.7
X12.6562Y-6.375
X12.6562Y-7.125
X12.6562Y-7.875
X12.6562Y-8.625
X13.3125Y-9.375
X13.4062Y-6.375
X13.4062Y-7.125
X13.4062Y-7.875
X13.4062Y-8.625
X14.1562Y-6.375
X14.1562Y-7.125
X14.1562Y-7.875
X14.1562Y-8.625
X14.1562Y-9.375
X14.9062Y-6.375
X14.9062Y-7.125
X14.9062Y-7.875
X14.9062Y-8.625
X14.9062Y-9.375
X15.6562Y-6.375
X15.6562Y-7.125
X15.6562Y-7.875
X15.6562Y-8.625
X15.6562Y-9.375
X16.4062Y-6.375
X16.4062Y-7.125
X16.4062Y-7.875
X16.4062Y-8.625
X16.4062Y-9.375
X17.1562Y-6.375
X17.1562Y-7.125
X17.1562Y-8.25
X17.1562Y-9.375
X17.4812Y-7.78
X17.4812Y-8.72
T0
M30
