%TF.GenerationSoftware,KiCad,Pcbnew,6.0.0~20210702.eff75b6+dfsg1-1*%
%TF.CreationDate,2021-07-18T18:47:17+02:00*%
%TF.ProjectId,keyboard,6b657962-6f61-4726-942e-6b696361645f,rev?*%
%TF.SameCoordinates,Original*%
%TF.FileFunction,Copper,L1,Top*%
%TF.FilePolarity,Positive*%
%FSLAX46Y46*%
G04 Gerber Fmt 4.6, Leading zero omitted, Abs format (unit mm)*
G04 Created by KiCad (PCBNEW 6.0.0~20210702.eff75b6+dfsg1-1) date 2021-07-18 18:47:17*
%MOMM*%
%LPD*%
G01*
G04 APERTURE LIST*
G04 Aperture macros list*
%AMHorizOval*
0 Thick line with rounded ends*
0 $1 width*
0 $2 $3 position (X,Y) of the first rounded end (center of the circle)*
0 $4 $5 position (X,Y) of the second rounded end (center of the circle)*
0 Add line between two ends*
20,1,$1,$2,$3,$4,$5,0*
0 Add two circle primitives to create the rounded ends*
1,1,$1,$2,$3*
1,1,$1,$4,$5*%
G04 Aperture macros list end*
%TA.AperFunction,ComponentPad*%
%ADD10HorizOval,2.250000X0.020000X0.290000X-0.020000X-0.290000X0*%
%TD*%
%TA.AperFunction,ComponentPad*%
%ADD11C,2.250000*%
%TD*%
%TA.AperFunction,ComponentPad*%
%ADD12HorizOval,2.250000X0.655001X0.730000X-0.655001X-0.730000X0*%
%TD*%
%TA.AperFunction,ComponentPad*%
%ADD13HorizOval,2.250000X-0.290000X0.020000X0.290000X-0.020000X0*%
%TD*%
%TA.AperFunction,ComponentPad*%
%ADD14HorizOval,2.250000X-0.730000X0.655001X0.730000X-0.655001X0*%
%TD*%
%TA.AperFunction,ComponentPad*%
%ADD15R,1.700000X1.700000*%
%TD*%
%TA.AperFunction,ComponentPad*%
%ADD16O,1.700000X1.700000*%
%TD*%
%TA.AperFunction,ComponentPad*%
%ADD17O,1.400000X1.400000*%
%TD*%
%TA.AperFunction,ComponentPad*%
%ADD18C,1.400000*%
%TD*%
%TA.AperFunction,ComponentPad*%
%ADD19R,1.800000X1.800000*%
%TD*%
%TA.AperFunction,ComponentPad*%
%ADD20C,1.800000*%
%TD*%
%TA.AperFunction,SMDPad,CuDef*%
%ADD21R,3.500000X1.700000*%
%TD*%
%TA.AperFunction,SMDPad,CuDef*%
%ADD22R,1.700000X3.500000*%
%TD*%
%TA.AperFunction,ComponentPad*%
%ADD23C,1.397000*%
%TD*%
%TA.AperFunction,ComponentPad*%
%ADD24C,2.000000*%
%TD*%
%TA.AperFunction,ComponentPad*%
%ADD25R,3.200000X2.000000*%
%TD*%
%TA.AperFunction,ComponentPad*%
%ADD26R,2.000000X2.000000*%
%TD*%
%TA.AperFunction,ComponentPad*%
%ADD27R,1.600000X1.600000*%
%TD*%
%TA.AperFunction,ComponentPad*%
%ADD28O,1.600000X1.600000*%
%TD*%
%TA.AperFunction,Conductor*%
%ADD29C,0.250000*%
%TD*%
G04 APERTURE END LIST*
D10*
%TO.P,K4_0,2,ROW*%
%TO.N,Net-(K4_0-Pad2)*%
X193020000Y-233335000D03*
D11*
X193040000Y-233045000D03*
D12*
%TO.P,K4_0,1,COL*%
%TO.N,col0*%
X187345001Y-234855000D03*
D11*
X188000000Y-234125000D03*
%TD*%
D13*
%TO.P,K3_13,2,ROW*%
%TO.N,Net-(D3_13-Pad2)*%
X430978750Y-207030000D03*
D11*
X430688750Y-207010000D03*
D14*
%TO.P,K3_13,1,COL*%
%TO.N,col13*%
X432498750Y-212704999D03*
D11*
X431768750Y-212050000D03*
%TD*%
D13*
%TO.P,K3_0,2,ROW*%
%TO.N,Net-(K3_0-Pad2)*%
X183328750Y-207030000D03*
D11*
X183038750Y-207010000D03*
D14*
%TO.P,K3_0,1,COL*%
%TO.N,col0*%
X184848750Y-212704999D03*
D11*
X184118750Y-212050000D03*
%TD*%
D15*
%TO.P,SW2,1*%
%TO.N,Net-(Pico1-Pad38)*%
X388937500Y-125412500D03*
D16*
%TO.P,SW2,2*%
%TO.N,Net-(Pico1-Pad30)*%
X386397500Y-125412500D03*
%TD*%
D17*
%TO.P,R2,2*%
%TO.N,Net-(D2-Pad2)*%
X346075000Y-138112500D03*
D18*
%TO.P,R2,1*%
%TO.N,Net-(Pico1-Pad26)*%
X340995000Y-138112500D03*
%TD*%
%TO.P,R1,1*%
%TO.N,Net-(Pico1-Pad21)*%
X340995000Y-134962500D03*
D17*
%TO.P,R1,2*%
%TO.N,Net-(D1-Pad2)*%
X346075000Y-134962500D03*
%TD*%
D19*
%TO.P,D2,1,K*%
%TO.N,Net-(Pico1-Pad23)*%
X358337500Y-136525000D03*
D20*
%TO.P,D2,2,A*%
%TO.N,Net-(D2-Pad2)*%
X360877500Y-136525000D03*
%TD*%
D19*
%TO.P,D1,1,K*%
%TO.N,Net-(Pico1-Pad23)*%
X353218750Y-136525000D03*
D20*
%TO.P,D1,2,A*%
%TO.N,Net-(D1-Pad2)*%
X350678750Y-136525000D03*
%TD*%
D11*
%TO.P,K0_5,1,COL*%
%TO.N,col5*%
X280868750Y-157925000D03*
D12*
X280213751Y-158655000D03*
D11*
%TO.P,K0_5,2,ROW*%
%TO.N,Net-(D0_5-Pad2)*%
X285908750Y-156845000D03*
D10*
X285888750Y-157135000D03*
%TD*%
D11*
%TO.P,K0_3,1,COL*%
%TO.N,col3*%
X242768750Y-157925000D03*
D12*
X242113751Y-158655000D03*
D11*
%TO.P,K0_3,2,ROW*%
%TO.N,Net-(D0_3-Pad2)*%
X247808750Y-156845000D03*
D10*
X247788750Y-157135000D03*
%TD*%
D16*
%TO.P,Pico1,43,SWDIO*%
%TO.N,unconnected-(Pico1-Pad43)*%
X265906250Y-135509000D03*
D21*
X266806250Y-135509000D03*
%TO.P,Pico1,42,GND*%
%TO.N,unconnected-(Pico1-Pad42)*%
X266806250Y-138049000D03*
D15*
X265906250Y-138049000D03*
D21*
%TO.P,Pico1,41,SWCLK*%
%TO.N,unconnected-(Pico1-Pad41)*%
X266806250Y-140589000D03*
D16*
X265906250Y-140589000D03*
%TO.P,Pico1,40,VBUS*%
%TO.N,unconnected-(Pico1-Pad40)*%
X217876250Y-129159000D03*
D22*
X217876250Y-128259000D03*
%TO.P,Pico1,39,VSYS*%
%TO.N,unconnected-(Pico1-Pad39)*%
X220416250Y-128259000D03*
D16*
X220416250Y-129159000D03*
D15*
%TO.P,Pico1,38,GND*%
%TO.N,Net-(Pico1-Pad38)*%
X222956250Y-129159000D03*
D22*
X222956250Y-128259000D03*
D16*
%TO.P,Pico1,37,3V3_EN*%
%TO.N,unconnected-(Pico1-Pad37)*%
X225496250Y-129159000D03*
D22*
X225496250Y-128259000D03*
D16*
%TO.P,Pico1,36,3V3*%
%TO.N,Net-(Pico1-Pad36)*%
X228036250Y-129159000D03*
D22*
X228036250Y-128259000D03*
D16*
%TO.P,Pico1,35,ADC_VREF*%
%TO.N,unconnected-(Pico1-Pad35)*%
X230576250Y-129159000D03*
D22*
X230576250Y-128259000D03*
%TO.P,Pico1,34,GPIO28_ADC2*%
%TO.N,row0*%
X233116250Y-128259000D03*
D16*
X233116250Y-129159000D03*
D15*
%TO.P,Pico1,33,AGND*%
%TO.N,unconnected-(Pico1-Pad33)*%
X235656250Y-129159000D03*
D22*
X235656250Y-128259000D03*
%TO.P,Pico1,32,GPIO27_ADC1*%
%TO.N,row1*%
X238196250Y-128259000D03*
D16*
X238196250Y-129159000D03*
D22*
%TO.P,Pico1,31,GPIO26_ADC0*%
%TO.N,row3*%
X240736250Y-128259000D03*
D16*
X240736250Y-129159000D03*
%TO.P,Pico1,30,RUN*%
%TO.N,Net-(Pico1-Pad30)*%
X243276250Y-129159000D03*
D22*
X243276250Y-128259000D03*
D16*
%TO.P,Pico1,29,GPIO22*%
%TO.N,row2*%
X245816250Y-129159000D03*
D22*
X245816250Y-128259000D03*
%TO.P,Pico1,28,GND*%
%TO.N,Net-(Pico1-Pad28)*%
X248356250Y-128259000D03*
D15*
X248356250Y-129159000D03*
D22*
%TO.P,Pico1,27,GPIO21*%
%TO.N,row4*%
X250896250Y-128259000D03*
D16*
X250896250Y-129159000D03*
%TO.P,Pico1,26,GPIO20*%
%TO.N,Net-(Pico1-Pad26)*%
X253436250Y-129159000D03*
D22*
X253436250Y-128259000D03*
D16*
%TO.P,Pico1,25,GPIO19*%
%TO.N,Net-(Pico1-Pad25)*%
X255976250Y-129159000D03*
D22*
X255976250Y-128259000D03*
D16*
%TO.P,Pico1,24,GPIO18*%
%TO.N,Net-(Pico1-Pad24)*%
X258516250Y-129159000D03*
D22*
X258516250Y-128259000D03*
D15*
%TO.P,Pico1,23,GND*%
%TO.N,Net-(Pico1-Pad23)*%
X261056250Y-129159000D03*
D22*
X261056250Y-128259000D03*
D16*
%TO.P,Pico1,22,GPIO17*%
%TO.N,Net-(Pico1-Pad22)*%
X263596250Y-129159000D03*
D22*
X263596250Y-128259000D03*
D16*
%TO.P,Pico1,21,GPIO16*%
%TO.N,Net-(Pico1-Pad21)*%
X266136250Y-129159000D03*
D22*
X266136250Y-128259000D03*
%TO.P,Pico1,20,GPIO15*%
%TO.N,Net-(Pico1-Pad20)*%
X266136250Y-147839000D03*
D16*
X266136250Y-146939000D03*
%TO.P,Pico1,19,GPIO14*%
%TO.N,Net-(Pico1-Pad19)*%
X263596250Y-146939000D03*
D22*
X263596250Y-147839000D03*
D15*
%TO.P,Pico1,18,GND*%
%TO.N,Net-(SW1-PadC)*%
X261056250Y-146939000D03*
D22*
X261056250Y-147839000D03*
%TO.P,Pico1,17,GPIO13*%
%TO.N,col13*%
X258516250Y-147839000D03*
D16*
X258516250Y-146939000D03*
D22*
%TO.P,Pico1,16,GPIO12*%
%TO.N,col12*%
X255976250Y-147839000D03*
D16*
X255976250Y-146939000D03*
%TO.P,Pico1,15,GPIO11*%
%TO.N,col11*%
X253436250Y-146939000D03*
D22*
X253436250Y-147839000D03*
D16*
%TO.P,Pico1,14,GPIO10*%
%TO.N,col10*%
X250896250Y-146939000D03*
D22*
X250896250Y-147839000D03*
%TO.P,Pico1,13,GND*%
%TO.N,unconnected-(Pico1-Pad13)*%
X248356250Y-147839000D03*
D15*
X248356250Y-146939000D03*
D22*
%TO.P,Pico1,12,GPIO9*%
%TO.N,col9*%
X245816250Y-147839000D03*
D16*
X245816250Y-146939000D03*
%TO.P,Pico1,11,GPIO8*%
%TO.N,col8*%
X243276250Y-146939000D03*
D22*
X243276250Y-147839000D03*
%TO.P,Pico1,10,GPIO7*%
%TO.N,col7*%
X240736250Y-147839000D03*
D16*
X240736250Y-146939000D03*
D22*
%TO.P,Pico1,9,GPIO6*%
%TO.N,col6*%
X238196250Y-147839000D03*
D16*
X238196250Y-146939000D03*
D22*
%TO.P,Pico1,8,GND*%
%TO.N,unconnected-(Pico1-Pad8)*%
X235656250Y-147839000D03*
D15*
X235656250Y-146939000D03*
D16*
%TO.P,Pico1,7,GPIO5*%
%TO.N,col5*%
X233116250Y-146939000D03*
D22*
X233116250Y-147839000D03*
D16*
%TO.P,Pico1,6,GPIO4*%
%TO.N,col4*%
X230576250Y-146939000D03*
D22*
X230576250Y-147839000D03*
D16*
%TO.P,Pico1,5,GPIO3*%
%TO.N,col3*%
X228036250Y-146939000D03*
D22*
X228036250Y-147839000D03*
%TO.P,Pico1,4,GPIO2*%
%TO.N,col2*%
X225496250Y-147839000D03*
D16*
X225496250Y-146939000D03*
D15*
%TO.P,Pico1,3,GND*%
%TO.N,unconnected-(Pico1-Pad3)*%
X222956250Y-146939000D03*
D22*
X222956250Y-147839000D03*
D16*
%TO.P,Pico1,2,GPIO1*%
%TO.N,col1*%
X220416250Y-146939000D03*
D22*
X220416250Y-147839000D03*
%TO.P,Pico1,1,GPIO0*%
%TO.N,col0*%
X217876250Y-147839000D03*
D16*
X217876250Y-146939000D03*
%TD*%
D23*
%TO.P,OL1,1,SDA*%
%TO.N,Net-(Pico1-Pad24)*%
X371207500Y-132715000D03*
%TO.P,OL1,2,SCL*%
%TO.N,Net-(Pico1-Pad25)*%
X371207500Y-135255000D03*
%TO.P,OL1,3,VCC*%
%TO.N,Net-(Pico1-Pad36)*%
X371207500Y-137795000D03*
%TO.P,OL1,4,GND*%
%TO.N,Net-(Pico1-Pad28)*%
X371207500Y-140335000D03*
%TD*%
D24*
%TO.P,SW1,S2,S2*%
%TO.N,Net-(Pico1-Pad19)*%
X433346000Y-134025000D03*
%TO.P,SW1,S1,S1*%
%TO.N,Net-(SW1-PadC)*%
X433346000Y-139025000D03*
D25*
%TO.P,SW1,MP*%
%TO.N,N/C*%
X426346000Y-130925000D03*
X426346000Y-142125000D03*
D24*
%TO.P,SW1,C,C*%
%TO.N,Net-(SW1-PadC)*%
X418846000Y-136525000D03*
%TO.P,SW1,B,B*%
%TO.N,Net-(Pico1-Pad20)*%
X418846000Y-139025000D03*
D26*
%TO.P,SW1,A,A*%
%TO.N,Net-(Pico1-Pad22)*%
X418846000Y-134025000D03*
%TD*%
D11*
%TO.P,K1_2,1,COL*%
%TO.N,col2*%
X223718750Y-176975000D03*
D12*
X223063751Y-177705000D03*
D10*
%TO.P,K1_2,2,ROW*%
%TO.N,Net-(D1_2-Pad2)*%
X228738750Y-176185000D03*
D11*
X228758750Y-175895000D03*
%TD*%
%TO.P,K4_1,1,COL*%
%TO.N,col1*%
X211812500Y-234125000D03*
D12*
X211157501Y-234855000D03*
D10*
%TO.P,K4_1,2,ROW*%
%TO.N,Net-(D4_1-Pad2)*%
X216832500Y-233335000D03*
D11*
X216852500Y-233045000D03*
%TD*%
D12*
%TO.P,K3_12,1,COL*%
%TO.N,col12*%
X413563751Y-215805000D03*
D11*
X414218750Y-215075000D03*
D10*
%TO.P,K3_12,2,ROW*%
%TO.N,Net-(D3_12-Pad2)*%
X419238750Y-214285000D03*
D11*
X419258750Y-213995000D03*
%TD*%
D12*
%TO.P,K3_6,1,COL*%
%TO.N,col6*%
X299263751Y-215805000D03*
D11*
X299918750Y-215075000D03*
D10*
%TO.P,K3_6,2,ROW*%
%TO.N,Net-(D3_6-Pad2)*%
X304938750Y-214285000D03*
D11*
X304958750Y-213995000D03*
%TD*%
D12*
%TO.P,K1_0,1,COL*%
%TO.N,col0*%
X184963751Y-177705000D03*
D11*
X185618750Y-176975000D03*
D10*
%TO.P,K1_0,2,ROW*%
%TO.N,Net-(K1_0-Pad2)*%
X190638750Y-176185000D03*
D11*
X190658750Y-175895000D03*
%TD*%
D12*
%TO.P,K3_9,1,COL*%
%TO.N,col9*%
X356413751Y-215805000D03*
D11*
X357068750Y-215075000D03*
D10*
%TO.P,K3_9,2,ROW*%
%TO.N,Net-(D3_9-Pad2)*%
X362088750Y-214285000D03*
D11*
X362108750Y-213995000D03*
%TD*%
D12*
%TO.P,K4_3,1,COL*%
%TO.N,col3*%
X234970001Y-234855000D03*
D11*
X235625000Y-234125000D03*
%TO.P,K4_3,2,ROW*%
%TO.N,Net-(K4_3-Pad2)*%
X240665000Y-233045000D03*
D10*
X240645000Y-233335000D03*
%TD*%
D11*
%TO.P,K0_12,1,COL*%
%TO.N,col12*%
X414218750Y-157925000D03*
D12*
X413563751Y-158655000D03*
D10*
%TO.P,K0_12,2,ROW*%
%TO.N,Net-(D0_12-Pad2)*%
X419238750Y-157135000D03*
D11*
X419258750Y-156845000D03*
%TD*%
%TO.P,K4_8,1,COL*%
%TO.N,col8*%
X335637500Y-234125000D03*
D12*
X334982501Y-234855000D03*
D10*
%TO.P,K4_8,2,ROW*%
%TO.N,Net-(K4_8-Pad2)*%
X340657500Y-233335000D03*
D11*
X340677500Y-233045000D03*
%TD*%
%TO.P,K3_1,1,COL*%
%TO.N,col1*%
X204668750Y-215075000D03*
D12*
X204013751Y-215805000D03*
D10*
%TO.P,K3_1,2,ROW*%
%TO.N,Net-(D3_1-Pad2)*%
X209688750Y-214285000D03*
D11*
X209708750Y-213995000D03*
%TD*%
%TO.P,K1_1,1,COL*%
%TO.N,col1*%
X204668750Y-176975000D03*
D12*
X204013751Y-177705000D03*
D10*
%TO.P,K1_1,2,ROW*%
%TO.N,Net-(D1_1-Pad2)*%
X209688750Y-176185000D03*
D11*
X209708750Y-175895000D03*
%TD*%
D12*
%TO.P,K4_10,1,COL*%
%TO.N,col10*%
X375463751Y-234855000D03*
D11*
X376118750Y-234125000D03*
D10*
%TO.P,K4_10,2,ROW*%
%TO.N,Net-(D4_10-Pad2)*%
X381138750Y-233335000D03*
D11*
X381158750Y-233045000D03*
%TD*%
%TO.P,K2_2,1,COL*%
%TO.N,col2*%
X223718750Y-196025000D03*
D12*
X223063751Y-196755000D03*
D11*
%TO.P,K2_2,2,ROW*%
%TO.N,Net-(D2_2-Pad2)*%
X228758750Y-194945000D03*
D10*
X228738750Y-195235000D03*
%TD*%
D12*
%TO.P,K3_2,1,COL*%
%TO.N,col2*%
X223063751Y-215805000D03*
D11*
X223718750Y-215075000D03*
%TO.P,K3_2,2,ROW*%
%TO.N,Net-(D3_2-Pad2)*%
X228758750Y-213995000D03*
D10*
X228738750Y-214285000D03*
%TD*%
D11*
%TO.P,K3_8,1,COL*%
%TO.N,col8*%
X338018750Y-215075000D03*
D12*
X337363751Y-215805000D03*
D10*
%TO.P,K3_8,2,ROW*%
%TO.N,Net-(D3_8-Pad2)*%
X343038750Y-214285000D03*
D11*
X343058750Y-213995000D03*
%TD*%
%TO.P,K1_5,1,COL*%
%TO.N,col5*%
X280868750Y-176975000D03*
D12*
X280213751Y-177705000D03*
D11*
%TO.P,K1_5,2,ROW*%
%TO.N,Net-(D1_5-Pad2)*%
X285908750Y-175895000D03*
D10*
X285888750Y-176185000D03*
%TD*%
D11*
%TO.P,K4_13,1,COL*%
%TO.N,col13*%
X433268750Y-234125000D03*
D12*
X432613751Y-234855000D03*
D11*
%TO.P,K4_13,2,ROW*%
%TO.N,Net-(D4_13-Pad2)*%
X438308750Y-233045000D03*
D10*
X438288750Y-233335000D03*
%TD*%
D11*
%TO.P,K1_4,1,COL*%
%TO.N,col4*%
X261818750Y-176975000D03*
D12*
X261163751Y-177705000D03*
D10*
%TO.P,K1_4,2,ROW*%
%TO.N,Net-(D1_4-Pad2)*%
X266838750Y-176185000D03*
D11*
X266858750Y-175895000D03*
%TD*%
%TO.P,K1_12,1,COL*%
%TO.N,col12*%
X414218750Y-176975000D03*
D12*
X413563751Y-177705000D03*
D11*
%TO.P,K1_12,2,ROW*%
%TO.N,Net-(D1_12-Pad2)*%
X419258750Y-175895000D03*
D10*
X419238750Y-176185000D03*
%TD*%
D12*
%TO.P,K2_1,1,COL*%
%TO.N,col1*%
X204013751Y-196755000D03*
D11*
X204668750Y-196025000D03*
%TO.P,K2_1,2,ROW*%
%TO.N,Net-(K2_1-Pad2)*%
X209708750Y-194945000D03*
D10*
X209688750Y-195235000D03*
%TD*%
D11*
%TO.P,K2_8,1,COL*%
%TO.N,col8*%
X338018750Y-196025000D03*
D12*
X337363751Y-196755000D03*
D10*
%TO.P,K2_8,2,ROW*%
%TO.N,Net-(D2_8-Pad2)*%
X343038750Y-195235000D03*
D11*
X343058750Y-194945000D03*
%TD*%
D12*
%TO.P,K4_11,1,COL*%
%TO.N,col11*%
X394513751Y-234855000D03*
D11*
X395168750Y-234125000D03*
D10*
%TO.P,K4_11,2,ROW*%
%TO.N,Net-(D4_11-Pad2)*%
X400188750Y-233335000D03*
D11*
X400208750Y-233045000D03*
%TD*%
%TO.P,K3_11,1,COL*%
%TO.N,col11*%
X395168750Y-215075000D03*
D12*
X394513751Y-215805000D03*
D11*
%TO.P,K3_11,2,ROW*%
%TO.N,Net-(D3_11-Pad2)*%
X400208750Y-213995000D03*
D10*
X400188750Y-214285000D03*
%TD*%
D12*
%TO.P,K0_2,1,COL*%
%TO.N,col2*%
X223063751Y-158655000D03*
D11*
X223718750Y-157925000D03*
%TO.P,K0_2,2,ROW*%
%TO.N,Net-(D0_2-Pad2)*%
X228758750Y-156845000D03*
D10*
X228738750Y-157135000D03*
%TD*%
D12*
%TO.P,K2_4,1,COL*%
%TO.N,col4*%
X261163751Y-196755000D03*
D11*
X261818750Y-196025000D03*
%TO.P,K2_4,2,ROW*%
%TO.N,Net-(D2_4-Pad2)*%
X266858750Y-194945000D03*
D10*
X266838750Y-195235000D03*
%TD*%
D12*
%TO.P,K3_10,1,COL*%
%TO.N,col10*%
X375463751Y-215805000D03*
D11*
X376118750Y-215075000D03*
D10*
%TO.P,K3_10,2,ROW*%
%TO.N,Net-(D3_10-Pad2)*%
X381138750Y-214285000D03*
D11*
X381158750Y-213995000D03*
%TD*%
D12*
%TO.P,K2_10,1,COL*%
%TO.N,col10*%
X375463751Y-196755000D03*
D11*
X376118750Y-196025000D03*
D10*
%TO.P,K2_10,2,ROW*%
%TO.N,Net-(D2_10-Pad2)*%
X381138750Y-195235000D03*
D11*
X381158750Y-194945000D03*
%TD*%
D12*
%TO.P,K0_10,1,COL*%
%TO.N,col10*%
X375463751Y-158655000D03*
D11*
X376118750Y-157925000D03*
D10*
%TO.P,K0_10,2,ROW*%
%TO.N,Net-(D0_10-Pad2)*%
X381138750Y-157135000D03*
D11*
X381158750Y-156845000D03*
%TD*%
D12*
%TO.P,K3_5,1,COL*%
%TO.N,col5*%
X280213751Y-215805000D03*
D11*
X280868750Y-215075000D03*
D10*
%TO.P,K3_5,2,ROW*%
%TO.N,Net-(D3_5-Pad2)*%
X285888750Y-214285000D03*
D11*
X285908750Y-213995000D03*
%TD*%
%TO.P,K0_0,1,COL*%
%TO.N,col0*%
X185618750Y-157925000D03*
D12*
X184963751Y-158655000D03*
D10*
%TO.P,K0_0,2,ROW*%
%TO.N,Net-(K0_0-Pad2)*%
X190638750Y-157135000D03*
D11*
X190658750Y-156845000D03*
%TD*%
%TO.P,K4_6,1,COL*%
%TO.N,col6*%
X295156250Y-234125000D03*
D12*
X294501251Y-234855000D03*
D11*
%TO.P,K4_6,2,ROW*%
%TO.N,Net-(K4_6-Pad2)*%
X300196250Y-233045000D03*
D10*
X300176250Y-233335000D03*
%TD*%
D12*
%TO.P,K4_12,1,COL*%
%TO.N,col12*%
X413563751Y-234855000D03*
D11*
X414218750Y-234125000D03*
%TO.P,K4_12,2,ROW*%
%TO.N,Net-(D4_12-Pad2)*%
X419258750Y-233045000D03*
D10*
X419238750Y-233335000D03*
%TD*%
D11*
%TO.P,K0_13,1,COL*%
%TO.N,col13*%
X433268750Y-157925000D03*
D12*
X432613751Y-158655000D03*
D11*
%TO.P,K0_13,2,ROW*%
%TO.N,Net-(D0_13-Pad2)*%
X438308750Y-156845000D03*
D10*
X438288750Y-157135000D03*
%TD*%
D11*
%TO.P,K0_4,1,COL*%
%TO.N,col4*%
X261818750Y-157925000D03*
D12*
X261163751Y-158655000D03*
D11*
%TO.P,K0_4,2,ROW*%
%TO.N,Net-(D0_4-Pad2)*%
X266858750Y-156845000D03*
D10*
X266838750Y-157135000D03*
%TD*%
D11*
%TO.P,K1_7,1,COL*%
%TO.N,col7*%
X318968750Y-176975000D03*
D12*
X318313751Y-177705000D03*
D10*
%TO.P,K1_7,2,ROW*%
%TO.N,Net-(D1_7-Pad2)*%
X323988750Y-176185000D03*
D11*
X324008750Y-175895000D03*
%TD*%
%TO.P,K1_10,1,COL*%
%TO.N,col10*%
X376118750Y-176975000D03*
D12*
X375463751Y-177705000D03*
D11*
%TO.P,K1_10,2,ROW*%
%TO.N,Net-(D1_10-Pad2)*%
X381158750Y-175895000D03*
D10*
X381138750Y-176185000D03*
%TD*%
D11*
%TO.P,K3_7,1,COL*%
%TO.N,col7*%
X318968750Y-215075000D03*
D12*
X318313751Y-215805000D03*
D10*
%TO.P,K3_7,2,ROW*%
%TO.N,Net-(D3_7-Pad2)*%
X323988750Y-214285000D03*
D11*
X324008750Y-213995000D03*
%TD*%
%TO.P,K2_12,1,COL*%
%TO.N,col12*%
X414218750Y-196025000D03*
D12*
X413563751Y-196755000D03*
D11*
%TO.P,K2_12,2,ROW*%
%TO.N,Net-(D2_12-Pad2)*%
X419258750Y-194945000D03*
D10*
X419238750Y-195235000D03*
%TD*%
D12*
%TO.P,K2_9,1,COL*%
%TO.N,col9*%
X356413751Y-196755000D03*
D11*
X357068750Y-196025000D03*
%TO.P,K2_9,2,ROW*%
%TO.N,Net-(D2_9-Pad2)*%
X362108750Y-194945000D03*
D10*
X362088750Y-195235000D03*
%TD*%
D11*
%TO.P,K3_4,1,COL*%
%TO.N,col4*%
X261818750Y-215075000D03*
D12*
X261163751Y-215805000D03*
D11*
%TO.P,K3_4,2,ROW*%
%TO.N,Net-(D3_4-Pad2)*%
X266858750Y-213995000D03*
D10*
X266838750Y-214285000D03*
%TD*%
D11*
%TO.P,K0_9,1,COL*%
%TO.N,col9*%
X357068750Y-157925000D03*
D12*
X356413751Y-158655000D03*
D11*
%TO.P,K0_9,2,ROW*%
%TO.N,Net-(D0_9-Pad2)*%
X362108750Y-156845000D03*
D10*
X362088750Y-157135000D03*
%TD*%
D12*
%TO.P,K0_7,1,COL*%
%TO.N,col7*%
X318313751Y-158655000D03*
D11*
X318968750Y-157925000D03*
%TO.P,K0_7,2,ROW*%
%TO.N,Net-(D0_7-Pad2)*%
X324008750Y-156845000D03*
D10*
X323988750Y-157135000D03*
%TD*%
D12*
%TO.P,K2_6,1,COL*%
%TO.N,col6*%
X299263751Y-196755000D03*
D11*
X299918750Y-196025000D03*
D10*
%TO.P,K2_6,2,ROW*%
%TO.N,Net-(D2_6-Pad2)*%
X304938750Y-195235000D03*
D11*
X304958750Y-194945000D03*
%TD*%
D12*
%TO.P,K0_8,1,COL*%
%TO.N,col8*%
X337363751Y-158655000D03*
D11*
X338018750Y-157925000D03*
D10*
%TO.P,K0_8,2,ROW*%
%TO.N,Net-(D0_8-Pad2)*%
X343038750Y-157135000D03*
D11*
X343058750Y-156845000D03*
%TD*%
D12*
%TO.P,K2_7,1,COL*%
%TO.N,col7*%
X318313751Y-196755000D03*
D11*
X318968750Y-196025000D03*
%TO.P,K2_7,2,ROW*%
%TO.N,Net-(D2_7-Pad2)*%
X324008750Y-194945000D03*
D10*
X323988750Y-195235000D03*
%TD*%
D12*
%TO.P,K4_4,1,COL*%
%TO.N,col4*%
X256401251Y-234855000D03*
D11*
X257056250Y-234125000D03*
%TO.P,K4_4,2,ROW*%
%TO.N,Net-(D4_4-Pad2)*%
X262096250Y-233045000D03*
D10*
X262076250Y-233335000D03*
%TD*%
D12*
%TO.P,K1_8,1,COL*%
%TO.N,col8*%
X337363751Y-177705000D03*
D11*
X338018750Y-176975000D03*
%TO.P,K1_8,2,ROW*%
%TO.N,Net-(D1_8-Pad2)*%
X343058750Y-175895000D03*
D10*
X343038750Y-176185000D03*
%TD*%
D11*
%TO.P,K1_3,1,COL*%
%TO.N,col3*%
X242768750Y-176975000D03*
D12*
X242113751Y-177705000D03*
D11*
%TO.P,K1_3,2,ROW*%
%TO.N,Net-(D1_3-Pad2)*%
X247808750Y-175895000D03*
D10*
X247788750Y-176185000D03*
%TD*%
D11*
%TO.P,K1_9,1,COL*%
%TO.N,col9*%
X357068750Y-176975000D03*
D12*
X356413751Y-177705000D03*
D10*
%TO.P,K1_9,2,ROW*%
%TO.N,Net-(D1_9-Pad2)*%
X362088750Y-176185000D03*
D11*
X362108750Y-175895000D03*
%TD*%
%TO.P,K2_11,1,COL*%
%TO.N,col11*%
X395168750Y-196025000D03*
D12*
X394513751Y-196755000D03*
D10*
%TO.P,K2_11,2,ROW*%
%TO.N,Net-(D2_11-Pad2)*%
X400188750Y-195235000D03*
D11*
X400208750Y-194945000D03*
%TD*%
%TO.P,K0_1,1,COL*%
%TO.N,col1*%
X204668750Y-157925000D03*
D12*
X204013751Y-158655000D03*
D11*
%TO.P,K0_1,2,ROW*%
%TO.N,Net-(D0_1-Pad2)*%
X209708750Y-156845000D03*
D10*
X209688750Y-157135000D03*
%TD*%
D11*
%TO.P,K1_11,1,COL*%
%TO.N,col11*%
X395168750Y-176975000D03*
D12*
X394513751Y-177705000D03*
D10*
%TO.P,K1_11,2,ROW*%
%TO.N,Net-(D1_11-Pad2)*%
X400188750Y-176185000D03*
D11*
X400208750Y-175895000D03*
%TD*%
%TO.P,K2_3,1,COL*%
%TO.N,col3*%
X242768750Y-196025000D03*
D12*
X242113751Y-196755000D03*
D11*
%TO.P,K2_3,2,ROW*%
%TO.N,Net-(D2_3-Pad2)*%
X247808750Y-194945000D03*
D10*
X247788750Y-195235000D03*
%TD*%
D11*
%TO.P,K3_3,1,COL*%
%TO.N,col3*%
X242768750Y-215075000D03*
D12*
X242113751Y-215805000D03*
D11*
%TO.P,K3_3,2,ROW*%
%TO.N,Net-(D3_3-Pad2)*%
X247808750Y-213995000D03*
D10*
X247788750Y-214285000D03*
%TD*%
D12*
%TO.P,K2_5,1,COL*%
%TO.N,col5*%
X280213751Y-196755000D03*
D11*
X280868750Y-196025000D03*
%TO.P,K2_5,2,ROW*%
%TO.N,Net-(D2_5-Pad2)*%
X285908750Y-194945000D03*
D10*
X285888750Y-195235000D03*
%TD*%
D11*
%TO.P,K1_13,1,COL*%
%TO.N,col13*%
X433268750Y-176975000D03*
D12*
X432613751Y-177705000D03*
D11*
%TO.P,K1_13,2,ROW*%
%TO.N,Net-(D1_13-Pad2)*%
X438308750Y-175895000D03*
D10*
X438288750Y-176185000D03*
%TD*%
D12*
%TO.P,K0_11,1,COL*%
%TO.N,col11*%
X394513751Y-158655000D03*
D11*
X395168750Y-157925000D03*
%TO.P,K0_11,2,ROW*%
%TO.N,Net-(D0_11-Pad2)*%
X400208750Y-156845000D03*
D10*
X400188750Y-157135000D03*
%TD*%
D12*
%TO.P,K0_6,1,COL*%
%TO.N,col6*%
X299263751Y-158655000D03*
D11*
X299918750Y-157925000D03*
D10*
%TO.P,K0_6,2,ROW*%
%TO.N,Net-(D0_6-Pad2)*%
X304938750Y-157135000D03*
D11*
X304958750Y-156845000D03*
%TD*%
D12*
%TO.P,K4_9,1,COL*%
%TO.N,col9*%
X356413751Y-234855000D03*
D11*
X357068750Y-234125000D03*
%TO.P,K4_9,2,ROW*%
%TO.N,Net-(D4_9-Pad2)*%
X362108750Y-233045000D03*
D10*
X362088750Y-233335000D03*
%TD*%
D11*
%TO.P,K1_6,1,COL*%
%TO.N,col6*%
X299918750Y-176975000D03*
D12*
X299263751Y-177705000D03*
D10*
%TO.P,K1_6,2,ROW*%
%TO.N,Net-(D1_6-Pad2)*%
X304938750Y-176185000D03*
D11*
X304958750Y-175895000D03*
%TD*%
D27*
%TO.P,D0_0,1,K*%
%TO.N,row0*%
X197643750Y-166687500D03*
D28*
%TO.P,D0_0,2,A*%
%TO.N,Net-(K0_0-Pad2)*%
X197643750Y-159067500D03*
%TD*%
D27*
%TO.P,D0_13,1,K*%
%TO.N,row0*%
X435768750Y-171450000D03*
D28*
%TO.P,D0_13,2,A*%
%TO.N,Net-(D0_13-Pad2)*%
X443388750Y-171450000D03*
%TD*%
D27*
%TO.P,D0_12,1,K*%
%TO.N,row0*%
X426243750Y-166687500D03*
D28*
%TO.P,D0_12,2,A*%
%TO.N,Net-(D0_12-Pad2)*%
X426243750Y-159067500D03*
%TD*%
D27*
%TO.P,D0_10,1,K*%
%TO.N,row0*%
X388143750Y-166687500D03*
D28*
%TO.P,D0_10,2,A*%
%TO.N,Net-(D0_10-Pad2)*%
X388143750Y-159067500D03*
%TD*%
D27*
%TO.P,D0_9,1,K*%
%TO.N,row0*%
X369093750Y-166687500D03*
D28*
%TO.P,D0_9,2,A*%
%TO.N,Net-(D0_9-Pad2)*%
X369093750Y-159067500D03*
%TD*%
D27*
%TO.P,D0_8,1,K*%
%TO.N,row0*%
X350043750Y-166687500D03*
D28*
%TO.P,D0_8,2,A*%
%TO.N,Net-(D0_8-Pad2)*%
X350043750Y-159067500D03*
%TD*%
D27*
%TO.P,D0_7,1,K*%
%TO.N,row0*%
X330993750Y-166687500D03*
D28*
%TO.P,D0_7,2,A*%
%TO.N,Net-(D0_7-Pad2)*%
X330993750Y-159067500D03*
%TD*%
D27*
%TO.P,D0_5,1,K*%
%TO.N,row0*%
X292893750Y-166687500D03*
D28*
%TO.P,D0_5,2,A*%
%TO.N,Net-(D0_5-Pad2)*%
X292893750Y-159067500D03*
%TD*%
D27*
%TO.P,D0_4,1,K*%
%TO.N,row0*%
X273843750Y-166687500D03*
D28*
%TO.P,D0_4,2,A*%
%TO.N,Net-(D0_4-Pad2)*%
X273843750Y-159067500D03*
%TD*%
D27*
%TO.P,D0_3,1,K*%
%TO.N,row0*%
X254793750Y-166687500D03*
D28*
%TO.P,D0_3,2,A*%
%TO.N,Net-(D0_3-Pad2)*%
X254793750Y-159067500D03*
%TD*%
D27*
%TO.P,D0_2,1,K*%
%TO.N,row0*%
X235743750Y-166687500D03*
D28*
%TO.P,D0_2,2,A*%
%TO.N,Net-(D0_2-Pad2)*%
X235743750Y-159067500D03*
%TD*%
D27*
%TO.P,D1_1,1,K*%
%TO.N,row1*%
X216693750Y-185737500D03*
D28*
%TO.P,D1_1,2,A*%
%TO.N,Net-(D1_1-Pad2)*%
X216693750Y-178117500D03*
%TD*%
D27*
%TO.P,D1_0,1,K*%
%TO.N,row1*%
X197643750Y-185737500D03*
D28*
%TO.P,D1_0,2,A*%
%TO.N,Net-(K1_0-Pad2)*%
X197643750Y-178117500D03*
%TD*%
D27*
%TO.P,D1_2,1,K*%
%TO.N,row1*%
X235743750Y-185737500D03*
D28*
%TO.P,D1_2,2,A*%
%TO.N,Net-(D1_2-Pad2)*%
X235743750Y-178117500D03*
%TD*%
D27*
%TO.P,D1_3,1,K*%
%TO.N,row1*%
X254793750Y-185737500D03*
D28*
%TO.P,D1_3,2,A*%
%TO.N,Net-(D1_3-Pad2)*%
X254793750Y-178117500D03*
%TD*%
D27*
%TO.P,D1_4,1,K*%
%TO.N,row1*%
X273843750Y-185737500D03*
D28*
%TO.P,D1_4,2,A*%
%TO.N,Net-(D1_4-Pad2)*%
X273843750Y-178117500D03*
%TD*%
D27*
%TO.P,D1_6,1,K*%
%TO.N,row1*%
X311943750Y-185737500D03*
D28*
%TO.P,D1_6,2,A*%
%TO.N,Net-(D1_6-Pad2)*%
X311943750Y-178117500D03*
%TD*%
D27*
%TO.P,D1_12,1,K*%
%TO.N,row1*%
X426243750Y-185737500D03*
D28*
%TO.P,D1_12,2,A*%
%TO.N,Net-(D1_12-Pad2)*%
X426243750Y-178117500D03*
%TD*%
D27*
%TO.P,D1_11,1,K*%
%TO.N,row1*%
X407193750Y-185737500D03*
D28*
%TO.P,D1_11,2,A*%
%TO.N,Net-(D1_11-Pad2)*%
X407193750Y-178117500D03*
%TD*%
D27*
%TO.P,D1_10,1,K*%
%TO.N,row1*%
X388143750Y-185737500D03*
D28*
%TO.P,D1_10,2,A*%
%TO.N,Net-(D1_10-Pad2)*%
X388143750Y-178117500D03*
%TD*%
D27*
%TO.P,D1_8,1,K*%
%TO.N,row1*%
X350043750Y-185737500D03*
D28*
%TO.P,D1_8,2,A*%
%TO.N,Net-(D1_8-Pad2)*%
X350043750Y-178117500D03*
%TD*%
D27*
%TO.P,D1_7,1,K*%
%TO.N,row1*%
X330993750Y-185737500D03*
D28*
%TO.P,D1_7,2,A*%
%TO.N,Net-(D1_7-Pad2)*%
X330993750Y-178117500D03*
%TD*%
D27*
%TO.P,D1_9,1,K*%
%TO.N,row1*%
X369093750Y-185737500D03*
D28*
%TO.P,D1_9,2,A*%
%TO.N,Net-(D1_9-Pad2)*%
X369093750Y-178117500D03*
%TD*%
D27*
%TO.P,D1_5,1,K*%
%TO.N,row1*%
X292893750Y-185737500D03*
D28*
%TO.P,D1_5,2,A*%
%TO.N,Net-(D1_5-Pad2)*%
X292893750Y-178117500D03*
%TD*%
D27*
%TO.P,D2_6,1,K*%
%TO.N,row2*%
X311943750Y-204787500D03*
D28*
%TO.P,D2_6,2,A*%
%TO.N,Net-(D2_6-Pad2)*%
X311943750Y-197167500D03*
%TD*%
D27*
%TO.P,D2_7,1,K*%
%TO.N,row2*%
X330993750Y-204787500D03*
D28*
%TO.P,D2_7,2,A*%
%TO.N,Net-(D2_7-Pad2)*%
X330993750Y-197167500D03*
%TD*%
D27*
%TO.P,D2_8,1,K*%
%TO.N,row2*%
X350043750Y-204787500D03*
D28*
%TO.P,D2_8,2,A*%
%TO.N,Net-(D2_8-Pad2)*%
X350043750Y-197167500D03*
%TD*%
D27*
%TO.P,D2_9,1,K*%
%TO.N,row2*%
X369093750Y-204787500D03*
D28*
%TO.P,D2_9,2,A*%
%TO.N,Net-(D2_9-Pad2)*%
X369093750Y-197167500D03*
%TD*%
D27*
%TO.P,D2_10,1,K*%
%TO.N,row2*%
X388143750Y-204787500D03*
D28*
%TO.P,D2_10,2,A*%
%TO.N,Net-(D2_10-Pad2)*%
X388143750Y-197167500D03*
%TD*%
D27*
%TO.P,D2_11,1,K*%
%TO.N,row2*%
X407193750Y-204787500D03*
D28*
%TO.P,D2_11,2,A*%
%TO.N,Net-(D2_11-Pad2)*%
X407193750Y-197167500D03*
%TD*%
D27*
%TO.P,D2_12,1,K*%
%TO.N,row2*%
X426243750Y-207010000D03*
D28*
%TO.P,D2_12,2,A*%
%TO.N,Net-(D2_12-Pad2)*%
X426243750Y-199390000D03*
%TD*%
D27*
%TO.P,D2_5,1,K*%
%TO.N,row2*%
X292893750Y-204787500D03*
D28*
%TO.P,D2_5,2,A*%
%TO.N,Net-(D2_5-Pad2)*%
X292893750Y-197167500D03*
%TD*%
D27*
%TO.P,D2_4,1,K*%
%TO.N,row2*%
X273843750Y-204787500D03*
D28*
%TO.P,D2_4,2,A*%
%TO.N,Net-(D2_4-Pad2)*%
X273843750Y-197167500D03*
%TD*%
D27*
%TO.P,D2_3,1,K*%
%TO.N,row2*%
X254793750Y-204787500D03*
D28*
%TO.P,D2_3,2,A*%
%TO.N,Net-(D2_3-Pad2)*%
X254793750Y-197167500D03*
%TD*%
D27*
%TO.P,D2_2,1,K*%
%TO.N,row2*%
X235743750Y-204787500D03*
D28*
%TO.P,D2_2,2,A*%
%TO.N,Net-(D2_2-Pad2)*%
X235743750Y-197167500D03*
%TD*%
D27*
%TO.P,D2_1,1,K*%
%TO.N,row2*%
X216693750Y-204787500D03*
D28*
%TO.P,D2_1,2,A*%
%TO.N,Net-(K2_1-Pad2)*%
X216693750Y-197167500D03*
%TD*%
D27*
%TO.P,D3_0,1,K*%
%TO.N,row3*%
X197643750Y-213518750D03*
D28*
%TO.P,D3_0,2,A*%
%TO.N,Net-(K3_0-Pad2)*%
X197643750Y-205898750D03*
%TD*%
D27*
%TO.P,D3_3,1,K*%
%TO.N,row3*%
X254793750Y-223837500D03*
D28*
%TO.P,D3_3,2,A*%
%TO.N,Net-(D3_3-Pad2)*%
X254793750Y-216217500D03*
%TD*%
D27*
%TO.P,D3_13,1,K*%
%TO.N,row3*%
X424656250Y-228600000D03*
D28*
%TO.P,D3_13,2,A*%
%TO.N,Net-(D3_13-Pad2)*%
X432276250Y-228600000D03*
%TD*%
D27*
%TO.P,D3_12,1,K*%
%TO.N,row3*%
X426243750Y-218122500D03*
D28*
%TO.P,D3_12,2,A*%
%TO.N,Net-(D3_12-Pad2)*%
X426243750Y-210502500D03*
%TD*%
D27*
%TO.P,D3_11,1,K*%
%TO.N,row3*%
X407193750Y-223837500D03*
D28*
%TO.P,D3_11,2,A*%
%TO.N,Net-(D3_11-Pad2)*%
X407193750Y-216217500D03*
%TD*%
D27*
%TO.P,D3_9,1,K*%
%TO.N,row3*%
X369093750Y-223837500D03*
D28*
%TO.P,D3_9,2,A*%
%TO.N,Net-(D3_9-Pad2)*%
X369093750Y-216217500D03*
%TD*%
D27*
%TO.P,D3_8,1,K*%
%TO.N,row3*%
X350043750Y-223837500D03*
D28*
%TO.P,D3_8,2,A*%
%TO.N,Net-(D3_8-Pad2)*%
X350043750Y-216217500D03*
%TD*%
D27*
%TO.P,D3_7,1,K*%
%TO.N,row3*%
X330993750Y-223837500D03*
D28*
%TO.P,D3_7,2,A*%
%TO.N,Net-(D3_7-Pad2)*%
X330993750Y-216217500D03*
%TD*%
D27*
%TO.P,D3_6,1,K*%
%TO.N,row3*%
X311943750Y-223837500D03*
D28*
%TO.P,D3_6,2,A*%
%TO.N,Net-(D3_6-Pad2)*%
X311943750Y-216217500D03*
%TD*%
D27*
%TO.P,D3_4,1,K*%
%TO.N,row3*%
X273843750Y-223837500D03*
D28*
%TO.P,D3_4,2,A*%
%TO.N,Net-(D3_4-Pad2)*%
X273843750Y-216217500D03*
%TD*%
D27*
%TO.P,D3_1,1,K*%
%TO.N,row3*%
X216693750Y-223837500D03*
D28*
%TO.P,D3_1,2,A*%
%TO.N,Net-(D3_1-Pad2)*%
X216693750Y-216217500D03*
%TD*%
D27*
%TO.P,D4_13,1,K*%
%TO.N,row4*%
X435292500Y-228600000D03*
D28*
%TO.P,D4_13,2,A*%
%TO.N,Net-(D4_13-Pad2)*%
X442912500Y-228600000D03*
%TD*%
D27*
%TO.P,D4_1,1,K*%
%TO.N,row4*%
X226218750Y-242887500D03*
D28*
%TO.P,D4_1,2,A*%
%TO.N,Net-(D4_1-Pad2)*%
X226218750Y-235267500D03*
%TD*%
D27*
%TO.P,D4_3,1,K*%
%TO.N,row4*%
X250031250Y-242887500D03*
D28*
%TO.P,D4_3,2,A*%
%TO.N,Net-(K4_3-Pad2)*%
X250031250Y-235267500D03*
%TD*%
D27*
%TO.P,D4_4,1,K*%
%TO.N,row4*%
X269081250Y-242887500D03*
D28*
%TO.P,D4_4,2,A*%
%TO.N,Net-(D4_4-Pad2)*%
X269081250Y-235267500D03*
%TD*%
D27*
%TO.P,D4_6,1,K*%
%TO.N,row4*%
X308768750Y-242887500D03*
D28*
%TO.P,D4_6,2,A*%
%TO.N,Net-(K4_6-Pad2)*%
X308768750Y-235267500D03*
%TD*%
D27*
%TO.P,D4_8,1,K*%
%TO.N,row4*%
X350043750Y-242887500D03*
D28*
%TO.P,D4_8,2,A*%
%TO.N,Net-(K4_8-Pad2)*%
X350043750Y-235267500D03*
%TD*%
D27*
%TO.P,D4_9,1,K*%
%TO.N,row4*%
X369093750Y-242887500D03*
D28*
%TO.P,D4_9,2,A*%
%TO.N,Net-(D4_9-Pad2)*%
X369093750Y-235267500D03*
%TD*%
D27*
%TO.P,D4_10,1,K*%
%TO.N,row4*%
X388143750Y-242887500D03*
D28*
%TO.P,D4_10,2,A*%
%TO.N,Net-(D4_10-Pad2)*%
X388143750Y-235267500D03*
%TD*%
D27*
%TO.P,D4_11,1,K*%
%TO.N,row4*%
X406400000Y-242887500D03*
D28*
%TO.P,D4_11,2,A*%
%TO.N,Net-(D4_11-Pad2)*%
X406400000Y-235267500D03*
%TD*%
D27*
%TO.P,D4_12,1,K*%
%TO.N,row4*%
X426243750Y-242887500D03*
D28*
%TO.P,D4_12,2,A*%
%TO.N,Net-(D4_12-Pad2)*%
X426243750Y-235267500D03*
%TD*%
D27*
%TO.P,D0_11,1,K*%
%TO.N,row0*%
X407193750Y-166687500D03*
D28*
%TO.P,D0_11,2,A*%
%TO.N,Net-(D0_11-Pad2)*%
X407193750Y-159067500D03*
%TD*%
D27*
%TO.P,D0_6,1,K*%
%TO.N,row0*%
X311943750Y-166687500D03*
D28*
%TO.P,D0_6,2,A*%
%TO.N,Net-(D0_6-Pad2)*%
X311943750Y-159067500D03*
%TD*%
D27*
%TO.P,D3_2,1,K*%
%TO.N,row3*%
X235743750Y-223837500D03*
D28*
%TO.P,D3_2,2,A*%
%TO.N,Net-(D3_2-Pad2)*%
X235743750Y-216217500D03*
%TD*%
D27*
%TO.P,D1_13,1,K*%
%TO.N,row1*%
X435768750Y-190500000D03*
D28*
%TO.P,D1_13,2,A*%
%TO.N,Net-(D1_13-Pad2)*%
X443388750Y-190500000D03*
%TD*%
D27*
%TO.P,D3_10,1,K*%
%TO.N,row3*%
X388143750Y-223837500D03*
D28*
%TO.P,D3_10,2,A*%
%TO.N,Net-(D3_10-Pad2)*%
X388143750Y-216217500D03*
%TD*%
D27*
%TO.P,D0_1,1,K*%
%TO.N,row0*%
X216693750Y-166687500D03*
D28*
%TO.P,D0_1,2,A*%
%TO.N,Net-(D0_1-Pad2)*%
X216693750Y-159067500D03*
%TD*%
D27*
%TO.P,D4_0,1,K*%
%TO.N,row4*%
X202406250Y-242887500D03*
D28*
%TO.P,D4_0,2,A*%
%TO.N,Net-(K4_0-Pad2)*%
X202406250Y-235267500D03*
%TD*%
D27*
%TO.P,D3_5,1,K*%
%TO.N,row3*%
X292893750Y-223837500D03*
D28*
%TO.P,D3_5,2,A*%
%TO.N,Net-(D3_5-Pad2)*%
X292893750Y-216217500D03*
%TD*%
D29*
%TO.N,Net-(D3_13-Pad2)*%
X432276250Y-228600000D02*
X432276250Y-214650342D01*
X432276250Y-214650342D02*
X430212500Y-212586592D01*
X430212500Y-212586592D02*
X430212500Y-207486250D01*
X430212500Y-207486250D02*
X430688750Y-207010000D01*
%TO.N,row3*%
X426243750Y-218122500D02*
X420528750Y-223837500D01*
X420528750Y-223837500D02*
X407193750Y-223837500D01*
X424656250Y-228600000D02*
X424656250Y-219710000D01*
X424656250Y-219710000D02*
X426243750Y-218122500D01*
%TO.N,Net-(D3_13-Pad2)*%
X430688750Y-207010000D02*
X431228750Y-207010000D01*
X431228750Y-207010000D02*
X431268750Y-207050000D01*
%TO.N,row2*%
X369093750Y-204787500D02*
X407193750Y-204787500D01*
X426243750Y-207010000D02*
X409416250Y-207010000D01*
X409416250Y-207010000D02*
X407193750Y-204787500D01*
%TO.N,Net-(D2_12-Pad2)*%
X426243750Y-199390000D02*
X423703750Y-199390000D01*
X423703750Y-199390000D02*
X419258750Y-194945000D01*
%TO.N,Net-(K3_0-Pad2)*%
X183618750Y-207050000D02*
X184770000Y-205898750D01*
X184770000Y-205898750D02*
X197643750Y-205898750D01*
%TO.N,Net-(Pico1-Pad38)*%
X222956250Y-129159000D02*
X222956250Y-127549978D01*
X222956250Y-127549978D02*
X226268239Y-124237989D01*
X226268239Y-124237989D02*
X387762989Y-124237989D01*
X387762989Y-124237989D02*
X388937500Y-125412500D01*
%TO.N,Net-(Pico1-Pad30)*%
X243276250Y-129159000D02*
X243276250Y-127549978D01*
X243276250Y-127549978D02*
X245413728Y-125412500D01*
X245413728Y-125412500D02*
X386397500Y-125412500D01*
%TO.N,Net-(SW1-PadC)*%
X433346000Y-139025000D02*
X434670511Y-137700489D01*
X434670511Y-137700489D02*
X434670511Y-133476368D01*
X434670511Y-133476368D02*
X433894632Y-132700489D01*
X433894632Y-132700489D02*
X422670511Y-132700489D01*
X422670511Y-132700489D02*
X418846000Y-136525000D01*
%TO.N,Net-(Pico1-Pad36)*%
X228036250Y-129159000D02*
X243339750Y-144462500D01*
X243339750Y-144462500D02*
X364540000Y-144462500D01*
X364540000Y-144462500D02*
X371207500Y-137795000D01*
%TO.N,Net-(Pico1-Pad25)*%
X255976250Y-129159000D02*
X258579750Y-131762500D01*
X258579750Y-131762500D02*
X367715000Y-131762500D01*
X367715000Y-131762500D02*
X371207500Y-135255000D01*
%TO.N,Net-(Pico1-Pad24)*%
X258516250Y-129159000D02*
X260326000Y-130968750D01*
X369461250Y-130968750D02*
X371207500Y-132715000D01*
X260326000Y-130968750D02*
X369461250Y-130968750D01*
%TO.N,Net-(SW1-PadC)*%
X261056250Y-146939000D02*
X262230761Y-145764489D01*
X262230761Y-145764489D02*
X409606511Y-145764489D01*
X409606511Y-145764489D02*
X418846000Y-136525000D01*
%TO.N,Net-(Pico1-Pad19)*%
X263596250Y-146939000D02*
X263596250Y-148548022D01*
X263596250Y-148548022D02*
X264961739Y-149913511D01*
X264961739Y-149913511D02*
X415236489Y-149913511D01*
X415236489Y-149913511D02*
X431125000Y-134025000D01*
X431125000Y-134025000D02*
X433346000Y-134025000D01*
%TO.N,Net-(Pico1-Pad20)*%
X266136250Y-146939000D02*
X410932000Y-146939000D01*
X410932000Y-146939000D02*
X418846000Y-139025000D01*
%TO.N,Net-(Pico1-Pad22)*%
X263596250Y-129159000D02*
X264770761Y-130333511D01*
X264770761Y-130333511D02*
X415154511Y-130333511D01*
X415154511Y-130333511D02*
X418846000Y-134025000D01*
%TO.N,col4*%
X261818750Y-157925000D02*
X259289239Y-155395489D01*
X259289239Y-155395489D02*
X237360217Y-155395489D01*
X237360217Y-155395489D02*
X230576250Y-148611522D01*
X230576250Y-148611522D02*
X230576250Y-147002500D01*
%TO.N,col5*%
X280868750Y-157925000D02*
X277776830Y-154833080D01*
X239337808Y-154833080D02*
X233116250Y-148611522D01*
X277776830Y-154833080D02*
X239337808Y-154833080D01*
X233116250Y-148611522D02*
X233116250Y-147002500D01*
%TO.N,col6*%
X299918750Y-157925000D02*
X296377310Y-154383560D01*
X296377310Y-154383560D02*
X243968288Y-154383560D01*
X243968288Y-154383560D02*
X238196250Y-148611522D01*
X238196250Y-148611522D02*
X238196250Y-147002500D01*
%TO.N,col7*%
X318968750Y-157925000D02*
X314977790Y-153934040D01*
X314977790Y-153934040D02*
X246058768Y-153934040D01*
X246058768Y-153934040D02*
X240736250Y-148611522D01*
X240736250Y-148611522D02*
X240736250Y-147002500D01*
%TO.N,col8*%
X338018750Y-157925000D02*
X333578270Y-153484520D01*
X333578270Y-153484520D02*
X248149248Y-153484520D01*
X248149248Y-153484520D02*
X243276250Y-148611522D01*
X243276250Y-148611522D02*
X243276250Y-147002500D01*
%TO.N,col9*%
X357068750Y-157925000D02*
X352178750Y-153035000D01*
X352178750Y-153035000D02*
X250239728Y-153035000D01*
X250239728Y-153035000D02*
X245816250Y-148611522D01*
X245816250Y-148611522D02*
X245816250Y-147002500D01*
%TO.N,col10*%
X250896250Y-147002500D02*
X250896250Y-148611522D01*
X250896250Y-148611522D02*
X254811728Y-152527000D01*
X254811728Y-152527000D02*
X370720750Y-152527000D01*
X370720750Y-152527000D02*
X376118750Y-157925000D01*
%TO.N,col11*%
X395168750Y-157925000D02*
X389262750Y-152019000D01*
X256843728Y-152019000D02*
X253436250Y-148611522D01*
X389262750Y-152019000D02*
X256843728Y-152019000D01*
X253436250Y-148611522D02*
X253436250Y-147002500D01*
%TO.N,col12*%
X414218750Y-157925000D02*
X407746270Y-151452520D01*
X255976250Y-148611522D02*
X255976250Y-147002500D01*
X407746270Y-151452520D02*
X258817248Y-151452520D01*
X258817248Y-151452520D02*
X255976250Y-148611522D01*
%TO.N,col13*%
X426346750Y-151003000D02*
X260604000Y-151003000D01*
X433268750Y-157925000D02*
X426346750Y-151003000D01*
X260604000Y-151003000D02*
X258516250Y-148915250D01*
X258516250Y-148915250D02*
X258516250Y-147002500D01*
%TO.N,col8*%
X243276250Y-148820000D02*
X243276250Y-147002500D01*
%TO.N,col7*%
X240736250Y-148661250D02*
X240736250Y-147002500D01*
%TO.N,col4*%
X230576250Y-149613750D02*
X230576250Y-147002500D01*
%TO.N,col3*%
X242768750Y-157925000D02*
X237349728Y-157925000D01*
X237349728Y-157925000D02*
X228036250Y-148611522D01*
X228036250Y-148611522D02*
X228036250Y-147002500D01*
%TO.N,col2*%
X223718750Y-157925000D02*
X225496250Y-156147500D01*
X225496250Y-156147500D02*
X225496250Y-147002500D01*
%TO.N,col1*%
X204668750Y-157925000D02*
X211781250Y-150812500D01*
X211781250Y-150812500D02*
X218215272Y-150812500D01*
X220416250Y-148611522D02*
X220416250Y-147002500D01*
X218215272Y-150812500D02*
X220416250Y-148611522D01*
%TO.N,col0*%
X185618750Y-157925000D02*
X196541250Y-147002500D01*
X196541250Y-147002500D02*
X217876250Y-147002500D01*
%TO.N,col6*%
X299042502Y-159385000D02*
X298608750Y-159385000D01*
%TO.N,row0*%
X330993750Y-166687500D02*
X311943750Y-166687500D01*
X407193750Y-166687500D02*
X388143750Y-166687500D01*
X350043750Y-166687500D02*
X330993750Y-166687500D01*
X216693750Y-166687500D02*
X197643750Y-166687500D01*
X431006250Y-166687500D02*
X435768750Y-171450000D01*
X235743750Y-166687500D02*
X216693750Y-166687500D01*
X254793750Y-166687500D02*
X235743750Y-166687500D01*
X388143750Y-166687500D02*
X369093750Y-166687500D01*
X292893750Y-166687500D02*
X273843750Y-166687500D01*
X273843750Y-166687500D02*
X254793750Y-166687500D01*
X426243750Y-166687500D02*
X407193750Y-166687500D01*
X369093750Y-166687500D02*
X350043750Y-166687500D01*
X426243750Y-166687500D02*
X431006250Y-166687500D01*
X311943750Y-166687500D02*
X292893750Y-166687500D01*
%TO.N,row1*%
X292893750Y-185737500D02*
X254793750Y-185737500D01*
X254793750Y-185737500D02*
X197643750Y-185737500D01*
X426243750Y-185737500D02*
X292893750Y-185737500D01*
X426243750Y-185737500D02*
X431006250Y-185737500D01*
X431006250Y-185737500D02*
X435768750Y-190500000D01*
%TO.N,row2*%
X216693750Y-204787500D02*
X369093750Y-204787500D01*
%TO.N,row3*%
X407193750Y-223837500D02*
X216693750Y-223837500D01*
X197643750Y-216406002D02*
X205075248Y-223837500D01*
X197643750Y-213518750D02*
X197643750Y-216406002D01*
X205075248Y-223837500D02*
X216693750Y-223837500D01*
%TO.N,row4*%
X427702252Y-242887500D02*
X435292500Y-235297252D01*
X250031250Y-242887500D02*
X269081250Y-242887500D01*
X406400000Y-242887500D02*
X426243750Y-242887500D01*
X388143750Y-242887500D02*
X406400000Y-242887500D01*
X369093750Y-242887500D02*
X388143750Y-242887500D01*
X350043750Y-242887500D02*
X369093750Y-242887500D01*
X226218750Y-242887500D02*
X250031250Y-242887500D01*
X269081250Y-242887500D02*
X308768750Y-242887500D01*
X202406250Y-242887500D02*
X226218750Y-242887500D01*
X308768750Y-242887500D02*
X350043750Y-242887500D01*
X426243750Y-242887500D02*
X427702252Y-242887500D01*
X435292500Y-235297252D02*
X435292500Y-228600000D01*
%TO.N,Net-(D0_1-Pad2)*%
X209668750Y-157425000D02*
X215051250Y-157425000D01*
X215051250Y-157425000D02*
X216693750Y-159067500D01*
%TO.N,Net-(D0_13-Pad2)*%
X443388750Y-159226250D02*
X441587500Y-157425000D01*
X443388750Y-171450000D02*
X443388750Y-159226250D01*
X441587500Y-157425000D02*
X438268750Y-157425000D01*
%TO.N,Net-(D0_12-Pad2)*%
X419218750Y-157425000D02*
X424601250Y-157425000D01*
X424601250Y-157425000D02*
X426243750Y-159067500D01*
%TO.N,Net-(D0_11-Pad2)*%
X400168750Y-157425000D02*
X405551250Y-157425000D01*
X405551250Y-157425000D02*
X407193750Y-159067500D01*
%TO.N,Net-(D0_10-Pad2)*%
X386501250Y-157425000D02*
X388143750Y-159067500D01*
X381118750Y-157425000D02*
X386501250Y-157425000D01*
%TO.N,Net-(D0_9-Pad2)*%
X367451250Y-157425000D02*
X369093750Y-159067500D01*
X362068750Y-157425000D02*
X367451250Y-157425000D01*
%TO.N,Net-(D0_8-Pad2)*%
X343018750Y-157425000D02*
X348401250Y-157425000D01*
X348401250Y-157425000D02*
X350043750Y-159067500D01*
%TO.N,Net-(D0_7-Pad2)*%
X329351250Y-157425000D02*
X330993750Y-159067500D01*
X323968750Y-157425000D02*
X329351250Y-157425000D01*
%TO.N,Net-(D0_6-Pad2)*%
X310301250Y-157425000D02*
X311943750Y-159067500D01*
X304918750Y-157425000D02*
X310301250Y-157425000D01*
%TO.N,Net-(D0_5-Pad2)*%
X291251250Y-157425000D02*
X292893750Y-159067500D01*
X285868750Y-157425000D02*
X291251250Y-157425000D01*
%TO.N,Net-(D0_4-Pad2)*%
X266818750Y-157425000D02*
X272201250Y-157425000D01*
X272201250Y-157425000D02*
X273843750Y-159067500D01*
%TO.N,Net-(D0_3-Pad2)*%
X253151250Y-157425000D02*
X254793750Y-159067500D01*
X247768750Y-157425000D02*
X253151250Y-157425000D01*
%TO.N,Net-(D0_2-Pad2)*%
X234101250Y-157425000D02*
X235743750Y-159067500D01*
X228718750Y-157425000D02*
X234101250Y-157425000D01*
%TO.N,Net-(K0_0-Pad2)*%
X190618750Y-157425000D02*
X196001250Y-157425000D01*
X196001250Y-157425000D02*
X197643750Y-159067500D01*
%TO.N,Net-(D1_1-Pad2)*%
X215051250Y-176475000D02*
X216693750Y-178117500D01*
X209668750Y-176475000D02*
X215051250Y-176475000D01*
%TO.N,Net-(K1_0-Pad2)*%
X190618750Y-176475000D02*
X196001250Y-176475000D01*
X196001250Y-176475000D02*
X197643750Y-178117500D01*
%TO.N,Net-(D1_2-Pad2)*%
X234101250Y-176475000D02*
X235743750Y-178117500D01*
X228718750Y-176475000D02*
X234101250Y-176475000D01*
%TO.N,Net-(D1_3-Pad2)*%
X253151250Y-176475000D02*
X254793750Y-178117500D01*
X247768750Y-176475000D02*
X253151250Y-176475000D01*
%TO.N,Net-(D1_4-Pad2)*%
X272201250Y-176475000D02*
X273843750Y-178117500D01*
X266818750Y-176475000D02*
X272201250Y-176475000D01*
%TO.N,Net-(D1_6-Pad2)*%
X304918750Y-176475000D02*
X310301250Y-176475000D01*
X310301250Y-176475000D02*
X311943750Y-178117500D01*
%TO.N,Net-(D1_13-Pad2)*%
X443388750Y-190500000D02*
X443388750Y-178276250D01*
X441587500Y-176475000D02*
X438268750Y-176475000D01*
X443388750Y-178276250D02*
X441587500Y-176475000D01*
%TO.N,Net-(D1_12-Pad2)*%
X424601250Y-176475000D02*
X426243750Y-178117500D01*
X419218750Y-176475000D02*
X424601250Y-176475000D01*
%TO.N,Net-(D1_11-Pad2)*%
X400168750Y-176475000D02*
X405551250Y-176475000D01*
X405551250Y-176475000D02*
X407193750Y-178117500D01*
%TO.N,Net-(D1_10-Pad2)*%
X386501250Y-176475000D02*
X388143750Y-178117500D01*
X381118750Y-176475000D02*
X386501250Y-176475000D01*
%TO.N,Net-(D1_8-Pad2)*%
X343018750Y-176475000D02*
X348401250Y-176475000D01*
X348401250Y-176475000D02*
X350043750Y-178117500D01*
%TO.N,Net-(D1_7-Pad2)*%
X329351250Y-176475000D02*
X330993750Y-178117500D01*
X323968750Y-176475000D02*
X329351250Y-176475000D01*
%TO.N,Net-(D1_9-Pad2)*%
X362068750Y-176475000D02*
X367451250Y-176475000D01*
X367451250Y-176475000D02*
X369093750Y-178117500D01*
%TO.N,Net-(D1_5-Pad2)*%
X291251250Y-176475000D02*
X292893750Y-178117500D01*
X285868750Y-176475000D02*
X291251250Y-176475000D01*
%TO.N,Net-(D2_6-Pad2)*%
X304918750Y-195525000D02*
X310301250Y-195525000D01*
X310301250Y-195525000D02*
X311943750Y-197167500D01*
%TO.N,Net-(D2_7-Pad2)*%
X323968750Y-195525000D02*
X329351250Y-195525000D01*
X329351250Y-195525000D02*
X330993750Y-197167500D01*
%TO.N,Net-(D2_8-Pad2)*%
X348401250Y-195525000D02*
X350043750Y-197167500D01*
X343018750Y-195525000D02*
X348401250Y-195525000D01*
%TO.N,Net-(D2_9-Pad2)*%
X362068750Y-195525000D02*
X367451250Y-195525000D01*
X367451250Y-195525000D02*
X369093750Y-197167500D01*
%TO.N,Net-(D2_10-Pad2)*%
X386501250Y-195525000D02*
X388143750Y-197167500D01*
X381118750Y-195525000D02*
X386501250Y-195525000D01*
%TO.N,Net-(D2_11-Pad2)*%
X405551250Y-195525000D02*
X407193750Y-197167500D01*
X400168750Y-195525000D02*
X405551250Y-195525000D01*
%TO.N,Net-(D2_5-Pad2)*%
X285868750Y-195525000D02*
X291251250Y-195525000D01*
X291251250Y-195525000D02*
X292893750Y-197167500D01*
%TO.N,Net-(D2_4-Pad2)*%
X266818750Y-195525000D02*
X272201250Y-195525000D01*
X272201250Y-195525000D02*
X273843750Y-197167500D01*
%TO.N,Net-(D2_3-Pad2)*%
X253151250Y-195525000D02*
X254793750Y-197167500D01*
X247768750Y-195525000D02*
X253151250Y-195525000D01*
%TO.N,Net-(D2_2-Pad2)*%
X228718750Y-195525000D02*
X234101250Y-195525000D01*
X234101250Y-195525000D02*
X235743750Y-197167500D01*
%TO.N,Net-(K2_1-Pad2)*%
X209668750Y-195525000D02*
X215051250Y-195525000D01*
X215051250Y-195525000D02*
X216693750Y-197167500D01*
%TO.N,Net-(D3_3-Pad2)*%
X253151250Y-214575000D02*
X254793750Y-216217500D01*
X247768750Y-214575000D02*
X253151250Y-214575000D01*
%TO.N,Net-(D3_2-Pad2)*%
X234101250Y-214575000D02*
X235743750Y-216217500D01*
X228718750Y-214575000D02*
X234101250Y-214575000D01*
%TO.N,Net-(D3_12-Pad2)*%
X421536250Y-214575000D02*
X426243750Y-209867500D01*
X419218750Y-214575000D02*
X421536250Y-214575000D01*
%TO.N,Net-(D3_11-Pad2)*%
X400168750Y-214575000D02*
X405551250Y-214575000D01*
X405551250Y-214575000D02*
X407193750Y-216217500D01*
%TO.N,Net-(D3_10-Pad2)*%
X381118750Y-214575000D02*
X386501250Y-214575000D01*
X386501250Y-214575000D02*
X388143750Y-216217500D01*
%TO.N,Net-(D3_9-Pad2)*%
X362068750Y-214575000D02*
X367451250Y-214575000D01*
X367451250Y-214575000D02*
X369093750Y-216217500D01*
%TO.N,Net-(D3_8-Pad2)*%
X348401250Y-214575000D02*
X350043750Y-216217500D01*
X343018750Y-214575000D02*
X348401250Y-214575000D01*
%TO.N,Net-(D3_7-Pad2)*%
X323968750Y-214575000D02*
X329351250Y-214575000D01*
X329351250Y-214575000D02*
X330993750Y-216217500D01*
%TO.N,Net-(D3_6-Pad2)*%
X304918750Y-214575000D02*
X310301250Y-214575000D01*
X310301250Y-214575000D02*
X311943750Y-216217500D01*
%TO.N,Net-(D3_5-Pad2)*%
X291251250Y-214575000D02*
X292893750Y-216217500D01*
X285868750Y-214575000D02*
X291251250Y-214575000D01*
%TO.N,Net-(D3_4-Pad2)*%
X272201250Y-214575000D02*
X273843750Y-216217500D01*
X266818750Y-214575000D02*
X272201250Y-214575000D01*
%TO.N,Net-(D3_1-Pad2)*%
X215051250Y-214575000D02*
X216693750Y-216217500D01*
X209668750Y-214575000D02*
X215051250Y-214575000D01*
%TO.N,Net-(K4_0-Pad2)*%
X200763750Y-233625000D02*
X202406250Y-235267500D01*
X193000000Y-233625000D02*
X200763750Y-233625000D01*
%TO.N,Net-(D4_13-Pad2)*%
X438268750Y-233243750D02*
X438268750Y-233625000D01*
X442912500Y-228600000D02*
X438268750Y-233243750D01*
%TO.N,Net-(D4_1-Pad2)*%
X216812500Y-233625000D02*
X224576250Y-233625000D01*
X224576250Y-233625000D02*
X226218750Y-235267500D01*
%TO.N,Net-(K4_3-Pad2)*%
X248388750Y-233625000D02*
X250031250Y-235267500D01*
X240625000Y-233625000D02*
X248388750Y-233625000D01*
%TO.N,Net-(D4_4-Pad2)*%
X267438750Y-233625000D02*
X269081250Y-235267500D01*
X262056250Y-233625000D02*
X267438750Y-233625000D01*
%TO.N,Net-(K4_6-Pad2)*%
X307126250Y-233625000D02*
X308768750Y-235267500D01*
X300156250Y-233625000D02*
X307126250Y-233625000D01*
%TO.N,Net-(K4_8-Pad2)*%
X340637500Y-233625000D02*
X348401250Y-233625000D01*
X348401250Y-233625000D02*
X350043750Y-235267500D01*
%TO.N,Net-(D4_9-Pad2)*%
X367451250Y-233625000D02*
X369093750Y-235267500D01*
X362068750Y-233625000D02*
X367451250Y-233625000D01*
%TO.N,Net-(D4_10-Pad2)*%
X386501250Y-233625000D02*
X388143750Y-235267500D01*
X381118750Y-233625000D02*
X386501250Y-233625000D01*
%TO.N,Net-(D4_11-Pad2)*%
X400168750Y-233625000D02*
X404757500Y-233625000D01*
X404757500Y-233625000D02*
X406400000Y-235267500D01*
%TO.N,Net-(D4_12-Pad2)*%
X419218750Y-233625000D02*
X424601250Y-233625000D01*
X424601250Y-233625000D02*
X426243750Y-235267500D01*
%TD*%
M02*
